STARTFONT 2.1
COMMENT
COMMENT Converted from OpenType font "Baloo-Regular.ttf" by "otf2bdf 3.0".
COMMENT
FONT -FreeType-Baloo-Medium-R-Normal--17-120-100-100-P-89-ISO10646-1
SIZE 12 100 100
FONTBOUNDINGBOX 29 29 -9 -10
STARTPROPERTIES 19
FOUNDRY "FreeType"
FAMILY_NAME "Baloo"
WEIGHT_NAME "Medium"
SLANT "R"
SETWIDTH_NAME "Normal"
ADD_STYLE_NAME ""
PIXEL_SIZE 17
POINT_SIZE 120
RESOLUTION_X 100
RESOLUTION_Y 100
SPACING "P"
AVERAGE_WIDTH 89
CHARSET_REGISTRY "ISO10646"
CHARSET_ENCODING "1"
FONT_ASCENT 17
FONT_DESCENT 8
COPYRIGHT "Copyright (c) 2015 Ek Type (www.ektype.in)"
_OTF_FONTFILE "Baloo-Regular.ttf"
_OTF_PSNAME "Baloo-Regular"
ENDPROPERTIES
CHARS 748
STARTCHAR 0000
ENCODING 0
SWIDTH 0 0
DWIDTH 0 0
BBX 0 0 0 0
BITMAP
ENDCHAR
STARTCHAR 000D
ENCODING 13
SWIDTH 240 0
DWIDTH 4 0
BBX 0 0 0 0
BITMAP
ENDCHAR
STARTCHAR 0020
ENCODING 32
SWIDTH 180 0
DWIDTH 3 0
BBX 0 0 0 0
BITMAP
ENDCHAR
STARTCHAR 0021
ENCODING 33
SWIDTH 300 0
DWIDTH 5 0
BBX 3 12 1 0
BITMAP
E0
E0
E0
E0
E0
E0
E0
E0
00
E0
E0
E0
ENDCHAR
STARTCHAR 0022
ENCODING 34
SWIDTH 420 0
DWIDTH 7 0
BBX 7 5 0 7
BITMAP
EC
EE
6C
6C
6C
ENDCHAR
STARTCHAR 0023
ENCODING 35
SWIDTH 720 0
DWIDTH 12 0
BBX 11 11 1 0
BITMAP
1980
1980
FFE0
FFE0
3380
3300
3300
FFC0
FFC0
7700
6600
ENDCHAR
STARTCHAR 0024
ENCODING 36
SWIDTH 600 0
DWIDTH 10 0
BBX 8 14 1 -2
BITMAP
38
38
7E
FE
E2
F0
FC
3E
0F
87
FF
FE
38
18
ENDCHAR
STARTCHAR 0025
ENCODING 37
SWIDTH 840 0
DWIDTH 14 0
BBX 12 11 1 0
BITMAP
7080
F9C0
D980
DB00
FF00
76E0
0DF0
1DB0
19B0
31F0
30E0
ENDCHAR
STARTCHAR 0026
ENCODING 38
SWIDTH 660 0
DWIDTH 11 0
BBX 10 11 1 0
BITMAP
3C00
7C00
7400
7000
3980
FD80
EF80
C780
E780
FFC0
7DC0
ENDCHAR
STARTCHAR 0027
ENCODING 39
SWIDTH 240 0
DWIDTH 4 0
BBX 3 5 0 7
BITMAP
E0
E0
60
60
60
ENDCHAR
STARTCHAR 0028
ENCODING 40
SWIDTH 300 0
DWIDTH 5 0
BBX 4 14 1 -2
BITMAP
30
70
E0
E0
E0
E0
C0
C0
E0
E0
E0
E0
70
30
ENDCHAR
STARTCHAR 0029
ENCODING 41
SWIDTH 300 0
DWIDTH 5 0
BBX 4 14 0 -2
BITMAP
E0
E0
70
70
30
30
30
30
30
30
70
70
E0
E0
ENDCHAR
STARTCHAR 002A
ENCODING 42
SWIDTH 360 0
DWIDTH 6 0
BBX 6 5 0 7
BITMAP
30
78
FC
70
78
ENDCHAR
STARTCHAR 002B
ENCODING 43
SWIDTH 540 0
DWIDTH 9 0
BBX 8 9 1 1
BITMAP
38
38
38
38
FF
FF
38
38
38
ENDCHAR
STARTCHAR 002C
ENCODING 44
SWIDTH 240 0
DWIDTH 4 0
BBX 4 6 0 -2
BITMAP
20
70
70
E0
E0
C0
ENDCHAR
STARTCHAR 002D
ENCODING 45
SWIDTH 360 0
DWIDTH 6 0
BBX 5 2 1 3
BITMAP
F8
F0
ENDCHAR
STARTCHAR 002E
ENCODING 46
SWIDTH 240 0
DWIDTH 4 0
BBX 4 3 0 0
BITMAP
60
F0
60
ENDCHAR
STARTCHAR 002F
ENCODING 47
SWIDTH 360 0
DWIDTH 6 0
BBX 6 15 0 -2
BITMAP
08
1C
1C
18
38
38
38
30
70
70
70
60
E0
E0
E0
ENDCHAR
STARTCHAR 0030
ENCODING 48
SWIDTH 600 0
DWIDTH 10 0
BBX 9 11 1 0
BITMAP
3C00
7E00
F700
E300
E380
E380
E380
E700
F700
7E00
3C00
ENDCHAR
STARTCHAR 0031
ENCODING 49
SWIDTH 420 0
DWIDTH 7 0
BBX 6 11 0 0
BITMAP
38
FC
FC
9C
1C
1C
1C
1C
1C
1C
1C
ENDCHAR
STARTCHAR 0032
ENCODING 50
SWIDTH 540 0
DWIDTH 9 0
BBX 7 11 1 0
BITMAP
78
FE
DE
0E
0E
1C
38
70
E0
FE
FE
ENDCHAR
STARTCHAR 0033
ENCODING 51
SWIDTH 540 0
DWIDTH 9 0
BBX 8 11 0 0
BITMAP
7C
7F
4F
07
3E
3E
07
07
6F
FF
7C
ENDCHAR
STARTCHAR 0034
ENCODING 52
SWIDTH 600 0
DWIDTH 10 0
BBX 10 11 0 0
BITMAP
0700
0F00
1F00
3B00
3B00
7300
E300
FFC0
7FC0
0300
0300
ENDCHAR
STARTCHAR 0035
ENCODING 53
SWIDTH 540 0
DWIDTH 9 0
BBX 7 11 1 0
BITMAP
7E
FE
E0
E0
FC
FE
0E
06
CE
FE
7C
ENDCHAR
STARTCHAR 0036
ENCODING 54
SWIDTH 540 0
DWIDTH 9 0
BBX 8 11 1 0
BITMAP
3E
7E
F2
E0
FE
FF
E7
E7
EF
7E
3C
ENDCHAR
STARTCHAR 0037
ENCODING 55
SWIDTH 480 0
DWIDTH 8 0
BBX 8 11 0 0
BITMAP
FF
FF
07
0E
0E
1E
1C
3C
38
38
30
ENDCHAR
STARTCHAR 0038
ENCODING 56
SWIDTH 600 0
DWIDTH 10 0
BBX 8 11 1 0
BITMAP
3C
FE
EF
E7
FE
7E
EF
E7
EF
FE
7C
ENDCHAR
STARTCHAR 0039
ENCODING 57
SWIDTH 540 0
DWIDTH 9 0
BBX 8 11 1 0
BITMAP
7C
FE
EE
C7
EF
FF
7F
07
DE
FE
78
ENDCHAR
STARTCHAR 003A
ENCODING 58
SWIDTH 240 0
DWIDTH 4 0
BBX 3 9 1 0
BITMAP
C0
E0
E0
C0
00
00
C0
E0
C0
ENDCHAR
STARTCHAR 003B
ENCODING 59
SWIDTH 300 0
DWIDTH 5 0
BBX 4 11 0 -2
BITMAP
60
70
70
60
00
00
70
70
70
E0
E0
ENDCHAR
STARTCHAR 003C
ENCODING 60
SWIDTH 480 0
DWIDTH 8 0
BBX 6 9 1 0
BITMAP
0C
3C
7C
F0
C0
F0
7C
3C
0C
ENDCHAR
STARTCHAR 003D
ENCODING 61
SWIDTH 480 0
DWIDTH 8 0
BBX 7 6 1 3
BITMAP
FE
FE
00
00
FE
FE
ENDCHAR
STARTCHAR 003E
ENCODING 62
SWIDTH 480 0
DWIDTH 8 0
BBX 7 9 1 0
BITMAP
C0
F0
F8
3C
0E
3C
F8
F0
C0
ENDCHAR
STARTCHAR 003F
ENCODING 63
SWIDTH 480 0
DWIDTH 8 0
BBX 8 11 0 0
BITMAP
7C
FE
4F
07
3F
3E
38
00
38
38
38
ENDCHAR
STARTCHAR 0040
ENCODING 64
SWIDTH 1080 0
DWIDTH 18 0
BBX 17 16 1 -4
BITMAP
07F000
1FFC00
3E3E00
780F00
73E700
E7F300
E77380
EE7300
EE7300
EF7700
E7FF00
E3FC00
700000
3E4000
1FC000
07C000
ENDCHAR
STARTCHAR 0041
ENCODING 65
SWIDTH 660 0
DWIDTH 11 0
BBX 10 11 0 0
BITMAP
1E00
1F00
1F00
3B00
3B80
3380
7F80
7FC0
71C0
F1C0
61C0
ENDCHAR
STARTCHAR 0042
ENCODING 66
SWIDTH 660 0
DWIDTH 11 0
BBX 9 11 1 0
BITMAP
7E00
FF00
E780
E380
FF00
FF00
E780
E380
E780
FF00
7E00
ENDCHAR
STARTCHAR 0043
ENCODING 67
SWIDTH 600 0
DWIDTH 10 0
BBX 8 11 1 0
BITMAP
1E
7F
F3
E0
E0
E0
E0
E0
FB
7F
1E
ENDCHAR
STARTCHAR 0044
ENCODING 68
SWIDTH 660 0
DWIDTH 11 0
BBX 10 11 1 0
BITMAP
7E00
FF00
E780
E380
E1C0
E1C0
E1C0
E380
E780
FF00
7E00
ENDCHAR
STARTCHAR 0045
ENCODING 69
SWIDTH 540 0
DWIDTH 9 0
BBX 8 11 1 0
BITMAP
FF
FF
E0
E0
FE
FE
E0
E0
E0
FF
FF
ENDCHAR
STARTCHAR 0046
ENCODING 70
SWIDTH 540 0
DWIDTH 9 0
BBX 8 11 1 0
BITMAP
FF
FF
E0
E0
E0
FE
FE
E0
E0
E0
E0
ENDCHAR
STARTCHAR 0047
ENCODING 71
SWIDTH 660 0
DWIDTH 11 0
BBX 9 11 1 0
BITMAP
1F00
7F80
F980
E000
E780
EF80
E180
E180
FB80
7F80
1F00
ENDCHAR
STARTCHAR 0048
ENCODING 72
SWIDTH 660 0
DWIDTH 11 0
BBX 9 11 1 0
BITMAP
E380
E380
E380
E380
FF80
FF80
E380
E380
E380
E380
E180
ENDCHAR
STARTCHAR 0049
ENCODING 73
SWIDTH 300 0
DWIDTH 5 0
BBX 3 11 1 0
BITMAP
E0
E0
E0
E0
E0
E0
E0
E0
E0
E0
E0
ENDCHAR
STARTCHAR 004A
ENCODING 74
SWIDTH 420 0
DWIDTH 7 0
BBX 6 11 0 0
BITMAP
1C
1C
1C
1C
1C
1C
1C
1C
7C
FC
78
ENDCHAR
STARTCHAR 004B
ENCODING 75
SWIDTH 600 0
DWIDTH 10 0
BBX 9 11 1 0
BITMAP
E300
E780
E780
EF00
FE00
FC00
FC00
EE00
EF00
E780
E380
ENDCHAR
STARTCHAR 004C
ENCODING 76
SWIDTH 540 0
DWIDTH 9 0
BBX 7 11 1 0
BITMAP
E0
E0
E0
E0
E0
E0
E0
E0
FE
FE
FE
ENDCHAR
STARTCHAR 004D
ENCODING 77
SWIDTH 840 0
DWIDTH 14 0
BBX 12 11 1 0
BITMAP
71E0
F9E0
F9E0
FBE0
FB60
EF60
EF60
EE70
E670
E070
E070
ENDCHAR
STARTCHAR 004E
ENCODING 78
SWIDTH 720 0
DWIDTH 12 0
BBX 9 11 1 0
BITMAP
F180
F180
F980
F980
FD80
ED80
ED80
EF80
E780
E780
E380
ENDCHAR
STARTCHAR 004F
ENCODING 79
SWIDTH 720 0
DWIDTH 12 0
BBX 10 11 1 0
BITMAP
1E00
7F80
F3C0
E1C0
E1C0
E1C0
E1C0
E1C0
F3C0
7F80
1E00
ENDCHAR
STARTCHAR 0050
ENCODING 80
SWIDTH 600 0
DWIDTH 10 0
BBX 8 11 1 0
BITMAP
7C
FF
E7
E7
E7
FF
FE
E0
E0
E0
E0
ENDCHAR
STARTCHAR 0051
ENCODING 81
SWIDTH 720 0
DWIDTH 12 0
BBX 11 14 1 -3
BITMAP
1E00
7F80
F3C0
E1C0
E1C0
E1C0
E1C0
E1C0
F3C0
7F80
1F80
03E0
03E0
00C0
ENDCHAR
STARTCHAR 0052
ENCODING 82
SWIDTH 600 0
DWIDTH 10 0
BBX 9 11 1 0
BITMAP
7E00
FF00
E700
E380
E700
FF00
FE00
EE00
E700
E780
E300
ENDCHAR
STARTCHAR 0053
ENCODING 83
SWIDTH 540 0
DWIDTH 9 0
BBX 8 11 1 0
BITMAP
7C
FE
E6
E0
F8
7E
1F
07
CF
FE
7C
ENDCHAR
STARTCHAR 0054
ENCODING 84
SWIDTH 540 0
DWIDTH 9 0
BBX 9 11 0 0
BITMAP
FF80
FF80
1C00
1C00
1C00
1C00
1C00
1C00
1C00
1C00
1C00
ENDCHAR
STARTCHAR 0055
ENCODING 85
SWIDTH 660 0
DWIDTH 11 0
BBX 9 11 1 0
BITMAP
E380
E380
E380
E380
E380
E380
E380
E380
F780
7F00
3E00
ENDCHAR
STARTCHAR 0056
ENCODING 86
SWIDTH 660 0
DWIDTH 11 0
BBX 10 11 0 0
BITMAP
61C0
F1C0
71C0
71C0
73C0
3B80
3B80
3B80
1F00
1F00
0E00
ENDCHAR
STARTCHAR 0057
ENCODING 87
SWIDTH 900 0
DWIDTH 15 0
BBX 14 11 0 0
BITMAP
E01C
701C
739C
739C
779C
77DC
77D8
36F8
3EF8
3EF8
1C70
ENDCHAR
STARTCHAR 0058
ENCODING 88
SWIDTH 600 0
DWIDTH 10 0
BBX 10 11 0 0
BITMAP
6180
F3C0
7B80
3F80
3F00
1E00
3F00
3F00
7380
F3C0
6180
ENDCHAR
STARTCHAR 0059
ENCODING 89
SWIDTH 600 0
DWIDTH 10 0
BBX 9 11 0 0
BITMAP
E180
F380
7380
7F80
3F00
1F00
1E00
0E00
0E00
0E00
0E00
ENDCHAR
STARTCHAR 005A
ENCODING 90
SWIDTH 600 0
DWIDTH 10 0
BBX 8 11 1 0
BITMAP
FF
FF
0F
1E
1C
3C
78
F0
E0
FF
FF
ENDCHAR
STARTCHAR 005B
ENCODING 91
SWIDTH 300 0
DWIDTH 5 0
BBX 4 14 1 -2
BITMAP
F0
F0
C0
C0
C0
C0
C0
C0
C0
C0
C0
C0
F0
F0
ENDCHAR
STARTCHAR 005C
ENCODING 92
SWIDTH 360 0
DWIDTH 6 0
BBX 6 15 0 -2
BITMAP
40
E0
E0
60
70
70
70
30
38
38
38
18
1C
1C
0C
ENDCHAR
STARTCHAR 005D
ENCODING 93
SWIDTH 300 0
DWIDTH 5 0
BBX 4 14 0 -2
BITMAP
F0
F0
30
30
30
30
30
30
30
30
30
30
F0
F0
ENDCHAR
STARTCHAR 005E
ENCODING 94
SWIDTH 480 0
DWIDTH 8 0
BBX 7 7 1 6
BITMAP
10
78
78
FC
EC
CC
CE
ENDCHAR
STARTCHAR 005F
ENCODING 95
SWIDTH 600 0
DWIDTH 10 0
BBX 8 2 1 -3
BITMAP
FF
FF
ENDCHAR
STARTCHAR 0060
ENCODING 96
SWIDTH 300 0
DWIDTH 5 0
BBX 5 4 0 10
BITMAP
60
F0
78
30
ENDCHAR
STARTCHAR 0061
ENCODING 97
SWIDTH 540 0
DWIDTH 9 0
BBX 8 9 0 0
BITMAP
3E
7F
67
0F
7F
63
F7
7F
3E
ENDCHAR
STARTCHAR 0062
ENCODING 98
SWIDTH 600 0
DWIDTH 10 0
BBX 9 12 1 0
BITMAP
E000
E000
E000
FC00
FF00
E700
E700
E380
E700
E700
FF00
7C00
ENDCHAR
STARTCHAR 0063
ENCODING 99
SWIDTH 480 0
DWIDTH 8 0
BBX 7 9 1 0
BITMAP
3C
7E
F4
E0
C0
E0
F4
7E
3C
ENDCHAR
STARTCHAR 0064
ENCODING 100
SWIDTH 600 0
DWIDTH 10 0
BBX 8 12 1 0
BITMAP
07
07
07
3F
FF
F7
E7
C7
E7
F7
FF
3E
ENDCHAR
STARTCHAR 0065
ENCODING 101
SWIDTH 540 0
DWIDTH 9 0
BBX 8 9 1 0
BITMAP
3C
FE
EF
CF
FF
E0
F2
7E
3E
ENDCHAR
STARTCHAR 0066
ENCODING 102
SWIDTH 420 0
DWIDTH 7 0
BBX 6 12 1 0
BITMAP
7C
FC
E4
E0
FC
FC
E0
E0
E0
E0
E0
E0
ENDCHAR
STARTCHAR 0067
ENCODING 103
SWIDTH 600 0
DWIDTH 10 0
BBX 8 12 1 -3
BITMAP
3C
FF
E7
C7
C7
E7
FF
7F
07
CF
FE
7C
ENDCHAR
STARTCHAR 0068
ENCODING 104
SWIDTH 600 0
DWIDTH 10 0
BBX 8 12 1 0
BITMAP
E0
E0
E0
FE
FF
E7
E7
E7
E7
E7
E7
E7
ENDCHAR
STARTCHAR 0069
ENCODING 105
SWIDTH 300 0
DWIDTH 5 0
BBX 3 13 1 0
BITMAP
E0
E0
E0
00
E0
E0
E0
E0
E0
E0
E0
E0
E0
ENDCHAR
STARTCHAR 006A
ENCODING 106
SWIDTH 300 0
DWIDTH 5 0
BBX 4 16 0 -3
BITMAP
70
70
70
00
70
70
70
70
70
70
70
70
70
70
F0
E0
ENDCHAR
STARTCHAR 006B
ENCODING 107
SWIDTH 540 0
DWIDTH 9 0
BBX 8 12 1 0
BITMAP
E0
E0
E0
E6
EF
FE
FC
F8
FC
EE
EF
E7
ENDCHAR
STARTCHAR 006C
ENCODING 108
SWIDTH 300 0
DWIDTH 5 0
BBX 3 12 1 0
BITMAP
E0
E0
E0
E0
E0
E0
E0
E0
E0
E0
E0
E0
ENDCHAR
STARTCHAR 006D
ENCODING 109
SWIDTH 840 0
DWIDTH 14 0
BBX 13 9 1 0
BITMAP
7DE0
FFF0
EF70
E738
E738
E738
E738
E738
E738
ENDCHAR
STARTCHAR 006E
ENCODING 110
SWIDTH 600 0
DWIDTH 10 0
BBX 8 9 1 0
BITMAP
7C
FF
E7
E7
E7
E7
E7
E7
E7
ENDCHAR
STARTCHAR 006F
ENCODING 111
SWIDTH 600 0
DWIDTH 10 0
BBX 8 9 1 0
BITMAP
3C
FE
E7
E7
C7
E7
E7
FE
3C
ENDCHAR
STARTCHAR 0070
ENCODING 112
SWIDTH 600 0
DWIDTH 10 0
BBX 8 12 1 -3
BITMAP
7C
FE
EF
E7
E7
E7
EF
FF
FC
E0
E0
E0
ENDCHAR
STARTCHAR 0071
ENCODING 113
SWIDTH 600 0
DWIDTH 10 0
BBX 8 12 1 -3
BITMAP
3E
7F
F7
E7
C7
E7
F7
FF
3F
07
07
07
ENDCHAR
STARTCHAR 0072
ENCODING 114
SWIDTH 420 0
DWIDTH 7 0
BBX 6 9 1 0
BITMAP
78
FC
F0
E0
E0
E0
E0
E0
E0
ENDCHAR
STARTCHAR 0073
ENCODING 115
SWIDTH 480 0
DWIDTH 8 0
BBX 7 9 1 0
BITMAP
7C
FC
E4
F0
FC
1E
CE
FE
7C
ENDCHAR
STARTCHAR 0074
ENCODING 116
SWIDTH 420 0
DWIDTH 7 0
BBX 5 11 1 0
BITMAP
E0
E0
E0
F8
F8
E0
E0
E0
E8
F8
78
ENDCHAR
STARTCHAR 0075
ENCODING 117
SWIDTH 600 0
DWIDTH 10 0
BBX 8 9 1 0
BITMAP
E7
E7
E7
E7
E7
E7
E7
FF
3E
ENDCHAR
STARTCHAR 0076
ENCODING 118
SWIDTH 540 0
DWIDTH 9 0
BBX 9 9 0 0
BITMAP
E380
6380
7380
7700
7700
3700
3E00
1E00
1C00
ENDCHAR
STARTCHAR 0077
ENCODING 119
SWIDTH 780 0
DWIDTH 13 0
BBX 13 9 0 0
BITMAP
E038
6738
77B8
77B8
7FB0
7DB0
3DF0
3CF0
3CE0
ENDCHAR
STARTCHAR 0078
ENCODING 120
SWIDTH 540 0
DWIDTH 9 0
BBX 9 9 0 0
BITMAP
6300
F700
7700
3E00
1C00
3E00
7F00
F780
6300
ENDCHAR
STARTCHAR 0079
ENCODING 121
SWIDTH 540 0
DWIDTH 9 0
BBX 9 12 0 -3
BITMAP
E380
6380
7380
7380
7700
3F00
3F00
1E00
1E00
3C00
7800
3800
ENDCHAR
STARTCHAR 007A
ENCODING 122
SWIDTH 480 0
DWIDTH 8 0
BBX 7 9 1 0
BITMAP
FC
FE
1C
3C
78
70
E0
FE
FE
ENDCHAR
STARTCHAR 007B
ENCODING 123
SWIDTH 360 0
DWIDTH 6 0
BBX 5 14 0 -2
BITMAP
38
38
30
30
30
70
F0
F0
70
30
30
30
38
38
ENDCHAR
STARTCHAR 007C
ENCODING 124
SWIDTH 300 0
DWIDTH 5 0
BBX 3 15 1 -3
BITMAP
E0
E0
E0
E0
E0
E0
E0
E0
E0
E0
E0
E0
E0
E0
E0
ENDCHAR
STARTCHAR 007D
ENCODING 125
SWIDTH 360 0
DWIDTH 6 0
BBX 5 14 0 -2
BITMAP
60
F0
70
70
70
70
38
38
70
70
70
70
F0
60
ENDCHAR
STARTCHAR 007E
ENCODING 126
SWIDTH 540 0
DWIDTH 9 0
BBX 8 3 0 3
BITMAP
7B
FF
4F
ENDCHAR
STARTCHAR 00A0
ENCODING 160
SWIDTH 180 0
DWIDTH 3 0
BBX 0 0 0 0
BITMAP
ENDCHAR
STARTCHAR 00A1
ENCODING 161
SWIDTH 300 0
DWIDTH 5 0
BBX 3 12 1 -4
BITMAP
E0
E0
E0
00
E0
E0
E0
E0
E0
E0
E0
E0
ENDCHAR
STARTCHAR 00A2
ENCODING 162
SWIDTH 480 0
DWIDTH 8 0
BBX 7 12 1 -2
BITMAP
38
38
7C
FE
E0
C0
C0
E0
FE
7E
38
38
ENDCHAR
STARTCHAR 00A3
ENCODING 163
SWIDTH 540 0
DWIDTH 9 0
BBX 7 11 1 0
BITMAP
3E
7E
72
70
70
FC
FC
70
60
FE
FE
ENDCHAR
STARTCHAR 00A4
ENCODING 164
SWIDTH 600 0
DWIDTH 10 0
BBX 8 9 1 0
BITMAP
FE
7E
EE
E6
E6
EE
7E
FF
40
ENDCHAR
STARTCHAR 00A5
ENCODING 165
SWIDTH 600 0
DWIDTH 10 0
BBX 9 11 1 0
BITMAP
C300
E780
F700
7E00
FF00
FF00
0000
FF00
FF00
1C00
1C00
ENDCHAR
STARTCHAR 00A6
ENCODING 166
SWIDTH 300 0
DWIDTH 5 0
BBX 3 14 1 -2
BITMAP
E0
E0
E0
E0
E0
E0
00
00
E0
E0
E0
E0
E0
E0
ENDCHAR
STARTCHAR 00A7
ENCODING 167
SWIDTH 540 0
DWIDTH 9 0
BBX 7 12 1 0
BITMAP
7C
FE
E4
F0
FE
FE
E6
FE
3E
86
FE
FE
ENDCHAR
STARTCHAR 00A8
ENCODING 168
SWIDTH 360 0
DWIDTH 6 0
BBX 7 3 0 10
BITMAP
CC
EE
CC
ENDCHAR
STARTCHAR 00A9
ENCODING 169
SWIDTH 720 0
DWIDTH 12 0
BBX 11 11 1 0
BITMAP
1E00
7F80
EFC0
DEC0
D840
9860
DE40
CEC0
E1C0
7F80
1E00
ENDCHAR
STARTCHAR 00AA
ENCODING 170
SWIDTH 360 0
DWIDTH 6 0
BBX 5 5 0 6
BITMAP
78
98
78
C8
78
ENDCHAR
STARTCHAR 00AB
ENCODING 171
SWIDTH 600 0
DWIDTH 10 0
BBX 8 8 1 0
BITMAP
22
73
F7
EE
CC
EE
77
33
ENDCHAR
STARTCHAR 00AC
ENCODING 172
SWIDTH 480 0
DWIDTH 8 0
BBX 8 4 0 2
BITMAP
FF
7F
07
07
ENDCHAR
STARTCHAR 00AD
ENCODING 173
SWIDTH 360 0
DWIDTH 6 0
BBX 5 2 1 3
BITMAP
F8
F0
ENDCHAR
STARTCHAR 00AE
ENCODING 174
SWIDTH 660 0
DWIDTH 11 0
BBX 9 9 1 2
BITMAP
3C00
6300
DD00
9580
9D80
9D80
D580
4300
3E00
ENDCHAR
STARTCHAR 00AF
ENCODING 175
SWIDTH 300 0
DWIDTH 5 0
BBX 6 2 0 10
BITMAP
FC
FC
ENDCHAR
STARTCHAR 00B0
ENCODING 176
SWIDTH 360 0
DWIDTH 6 0
BBX 6 5 0 7
BITMAP
78
FC
CC
FC
78
ENDCHAR
STARTCHAR 00B1
ENCODING 177
SWIDTH 480 0
DWIDTH 8 0
BBX 8 11 0 0
BITMAP
18
1C
1C
FF
7F
1C
1C
1C
00
7F
7F
ENDCHAR
STARTCHAR 00B2
ENCODING 178
SWIDTH 300 0
DWIDTH 5 0
BBX 4 5 0 5
BITMAP
70
70
30
60
F0
ENDCHAR
STARTCHAR 00B3
ENCODING 179
SWIDTH 300 0
DWIDTH 5 0
BBX 4 5 0 5
BITMAP
F0
70
10
90
70
ENDCHAR
STARTCHAR 00B4
ENCODING 180
SWIDTH 300 0
DWIDTH 5 0
BBX 5 4 0 9
BITMAP
38
78
F0
40
ENDCHAR
STARTCHAR 00B5
ENCODING 181
SWIDTH 600 0
DWIDTH 10 0
BBX 8 12 1 -3
BITMAP
E7
E7
E7
E7
E7
E7
E7
FF
FE
E0
E0
E0
ENDCHAR
STARTCHAR 00B6
ENCODING 182
SWIDTH 540 0
DWIDTH 9 0
BBX 8 12 0 -1
BITMAP
3F
7F
F3
F3
F3
73
73
03
03
03
03
03
ENDCHAR
STARTCHAR 00B7
ENCODING 183
SWIDTH 240 0
DWIDTH 4 0
BBX 4 4 0 4
BITMAP
60
F0
F0
60
ENDCHAR
STARTCHAR 00B8
ENCODING 184
SWIDTH 180 0
DWIDTH 3 0
BBX 3 4 0 -4
BITMAP
60
60
E0
E0
ENDCHAR
STARTCHAR 00B9
ENCODING 185
SWIDTH 240 0
DWIDTH 4 0
BBX 3 5 0 5
BITMAP
E0
E0
60
60
60
ENDCHAR
STARTCHAR 00BA
ENCODING 186
SWIDTH 420 0
DWIDTH 7 0
BBX 6 5 0 6
BITMAP
78
6C
CC
6C
78
ENDCHAR
STARTCHAR 00BB
ENCODING 187
SWIDTH 600 0
DWIDTH 10 0
BBX 8 8 1 0
BITMAP
CC
EE
77
73
77
EE
CC
84
ENDCHAR
STARTCHAR 00BC
ENCODING 188
SWIDTH 660 0
DWIDTH 11 0
BBX 11 11 0 0
BITMAP
6180
E180
6300
6600
6600
6CC0
19C0
1BC0
32C0
67E0
60C0
ENDCHAR
STARTCHAR 00BD
ENCODING 189
SWIDTH 660 0
DWIDTH 11 0
BBX 10 11 0 0
BITMAP
6180
E180
6300
6600
6600
6DC0
1A40
18C0
31C0
3180
63C0
ENDCHAR
STARTCHAR 00BE
ENCODING 190
SWIDTH 720 0
DWIDTH 12 0
BBX 12 11 0 0
BITMAP
70C0
90C0
7180
1300
9300
F6E0
0CE0
0DE0
1960
33F0
3060
ENDCHAR
STARTCHAR 00BF
ENCODING 191
SWIDTH 420 0
DWIDTH 7 0
BBX 7 11 0 -3
BITMAP
18
1C
18
00
1C
7C
F8
E0
E6
FE
7C
ENDCHAR
STARTCHAR 00C0
ENCODING 192
SWIDTH 660 0
DWIDTH 11 0
BBX 10 15 0 0
BITMAP
1C00
1F00
0700
0000
1E00
1F00
1F00
3B00
3B80
3380
7F80
7FC0
71C0
F1C0
61C0
ENDCHAR
STARTCHAR 00C1
ENCODING 193
SWIDTH 660 0
DWIDTH 11 0
BBX 10 15 0 0
BITMAP
0700
0F00
1E00
0000
1E00
1F00
1F00
3B00
3B80
3380
7F80
7FC0
71C0
F1C0
61C0
ENDCHAR
STARTCHAR 00C2
ENCODING 194
SWIDTH 660 0
DWIDTH 11 0
BBX 10 16 0 0
BITMAP
0400
0E00
1F00
1B00
0000
1E00
1F00
1F00
3B00
3B80
3380
7F80
7FC0
71C0
F1C0
61C0
ENDCHAR
STARTCHAR 00C3
ENCODING 195
SWIDTH 660 0
DWIDTH 11 0
BBX 10 15 0 0
BITMAP
1F00
3F80
0000
0000
1E00
1F00
1F00
3B00
3B80
3380
7F80
7FC0
71C0
F1C0
61C0
ENDCHAR
STARTCHAR 00C4
ENCODING 196
SWIDTH 660 0
DWIDTH 11 0
BBX 10 15 0 0
BITMAP
3B00
3B80
3B00
0000
1E00
1F00
1F00
3B00
3B80
3380
7F80
7FC0
71C0
F1C0
61C0
ENDCHAR
STARTCHAR 00C5
ENCODING 197
SWIDTH 660 0
DWIDTH 11 0
BBX 10 16 0 0
BITMAP
0E00
1B00
1B00
0E00
0000
1E00
1F00
1F00
3B00
3B80
3380
7F80
7FC0
71C0
F1C0
61C0
ENDCHAR
STARTCHAR 00C6
ENCODING 198
SWIDTH 900 0
DWIDTH 15 0
BBX 14 11 0 0
BITMAP
07FC
0FFC
0FC0
1DC0
1DFC
39FC
3FC0
7FC0
71C0
F1FC
61FC
ENDCHAR
STARTCHAR 00C7
ENCODING 199
SWIDTH 600 0
DWIDTH 10 0
BBX 8 15 1 -4
BITMAP
1E
7F
FB
E0
E0
E0
E0
E0
F1
7F
3F
0C
0E
1C
1C
ENDCHAR
STARTCHAR 00C8
ENCODING 200
SWIDTH 540 0
DWIDTH 9 0
BBX 8 15 1 0
BITMAP
70
7C
1C
00
FE
FE
E0
E0
FE
FE
E0
E0
E0
FF
FE
ENDCHAR
STARTCHAR 00C9
ENCODING 201
SWIDTH 540 0
DWIDTH 9 0
BBX 8 15 1 0
BITMAP
1C
3C
30
00
FE
FE
E0
E0
FE
FE
E0
E0
E0
FF
FE
ENDCHAR
STARTCHAR 00CA
ENCODING 202
SWIDTH 540 0
DWIDTH 9 0
BBX 8 16 1 0
BITMAP
10
38
7E
6C
00
FE
FE
E0
E0
FE
FE
E0
E0
E0
FF
FE
ENDCHAR
STARTCHAR 00CB
ENCODING 203
SWIDTH 540 0
DWIDTH 9 0
BBX 8 15 1 0
BITMAP
6E
EE
6E
00
FE
FE
E0
E0
FE
FE
E0
E0
E0
FF
FE
ENDCHAR
STARTCHAR 00CC
ENCODING 204
SWIDTH 300 0
DWIDTH 5 0
BBX 5 15 0 0
BITMAP
E0
F8
30
00
70
70
70
70
70
70
70
70
70
70
70
ENDCHAR
STARTCHAR 00CD
ENCODING 205
SWIDTH 300 0
DWIDTH 5 0
BBX 4 15 1 0
BITMAP
30
F0
E0
00
E0
E0
E0
E0
E0
E0
E0
E0
E0
E0
E0
ENDCHAR
STARTCHAR 00CE
ENCODING 206
SWIDTH 300 0
DWIDTH 5 0
BBX 5 16 0 0
BITMAP
20
70
F8
D8
00
70
70
70
70
70
70
70
70
70
70
70
ENDCHAR
STARTCHAR 00CF
ENCODING 207
SWIDTH 300 0
DWIDTH 5 0
BBX 7 15 -1 0
BITMAP
EE
EE
EE
00
38
38
38
38
38
38
38
38
38
38
38
ENDCHAR
STARTCHAR 00D0
ENCODING 208
SWIDTH 720 0
DWIDTH 12 0
BBX 11 11 0 0
BITMAP
3F00
3FC0
3BE0
38E0
FCE0
FEE0
38E0
38E0
3BE0
3FC0
3F00
ENDCHAR
STARTCHAR 00D1
ENCODING 209
SWIDTH 660 0
DWIDTH 11 0
BBX 9 15 1 0
BITMAP
3F00
3F00
0000
0000
E380
F380
FB80
FB80
FB80
FF80
ED80
EF80
E780
E780
E380
ENDCHAR
STARTCHAR 00D2
ENCODING 210
SWIDTH 720 0
DWIDTH 12 0
BBX 10 16 1 0
BITMAP
1000
3C00
1E00
0600
0000
1E00
7F80
F3C0
E1C0
E1C0
E1C0
E1C0
E1C0
F3C0
7F80
1E00
ENDCHAR
STARTCHAR 00D3
ENCODING 211
SWIDTH 720 0
DWIDTH 12 0
BBX 10 15 1 0
BITMAP
0600
0E00
1E00
1000
1E00
7F80
F3C0
E1C0
E1C0
E1C0
E1C0
E1C0
F3C0
7F80
1E00
ENDCHAR
STARTCHAR 00D4
ENCODING 212
SWIDTH 720 0
DWIDTH 12 0
BBX 10 16 1 0
BITMAP
0400
1E00
3F00
3300
0000
1E00
7F80
F3C0
E1C0
E1C0
E1C0
E1C0
E1C0
F3C0
7F80
1E00
ENDCHAR
STARTCHAR 00D5
ENCODING 213
SWIDTH 720 0
DWIDTH 12 0
BBX 10 15 1 0
BITMAP
3F00
3F00
0000
0000
1E00
7F80
F3C0
E1C0
E1C0
E1C0
E1C0
E1C0
F3C0
7F80
1E00
ENDCHAR
STARTCHAR 00D6
ENCODING 214
SWIDTH 720 0
DWIDTH 12 0
BBX 10 15 1 0
BITMAP
3300
3F00
3300
0000
1E00
7F80
F3C0
E1C0
E1C0
E1C0
E1C0
E1C0
F3C0
7F80
1E00
ENDCHAR
STARTCHAR 00D7
ENCODING 215
SWIDTH 540 0
DWIDTH 9 0
BBX 8 8 0 1
BITMAP
62
F7
7E
3C
3C
7E
77
63
ENDCHAR
STARTCHAR 00D8
ENCODING 216
SWIDTH 720 0
DWIDTH 12 0
BBX 10 13 1 -1
BITMAP
0180
1F80
7F80
F3C0
E7C0
EFC0
EDC0
FDC0
F9C0
F3C0
7F80
7E00
6000
ENDCHAR
STARTCHAR 00D9
ENCODING 217
SWIDTH 660 0
DWIDTH 11 0
BBX 9 16 1 0
BITMAP
1000
3800
3E00
0C00
0000
E380
E380
E380
E380
E380
E380
E380
E380
F780
7F00
3E00
ENDCHAR
STARTCHAR 00DA
ENCODING 218
SWIDTH 660 0
DWIDTH 11 0
BBX 9 15 1 0
BITMAP
0600
1E00
1C00
0000
E380
E380
E380
E380
E380
E380
E380
E380
F780
7F00
3E00
ENDCHAR
STARTCHAR 00DB
ENCODING 219
SWIDTH 660 0
DWIDTH 11 0
BBX 9 16 1 0
BITMAP
0800
1C00
3F00
3600
0000
E380
E380
E380
E380
E380
E380
E380
E380
F780
7F00
3E00
ENDCHAR
STARTCHAR 00DC
ENCODING 220
SWIDTH 660 0
DWIDTH 11 0
BBX 9 15 1 0
BITMAP
3700
7700
3700
0000
E380
E380
E380
E380
E380
E380
E380
E380
F780
7F00
3E00
ENDCHAR
STARTCHAR 00DD
ENCODING 221
SWIDTH 600 0
DWIDTH 10 0
BBX 9 15 0 0
BITMAP
0600
1F00
1C00
0000
E180
F380
7380
7F80
3F00
1F00
1E00
0E00
0E00
0E00
0E00
ENDCHAR
STARTCHAR 00DE
ENCODING 222
SWIDTH 600 0
DWIDTH 10 0
BBX 8 11 1 0
BITMAP
E0
E0
FE
FF
E7
E7
E7
FF
FE
E0
E0
ENDCHAR
STARTCHAR 00DF
ENCODING 223
SWIDTH 660 0
DWIDTH 11 0
BBX 9 12 1 0
BITMAP
3C00
7F00
F700
E300
EF00
EE00
EE00
EF80
E380
EB80
EF80
EF00
ENDCHAR
STARTCHAR 00E0
ENCODING 224
SWIDTH 540 0
DWIDTH 9 0
BBX 8 14 0 0
BITMAP
10
38
1E
0C
00
3E
7F
67
0F
7F
63
F7
7F
3E
ENDCHAR
STARTCHAR 00E1
ENCODING 225
SWIDTH 540 0
DWIDTH 9 0
BBX 8 14 0 0
BITMAP
08
0E
3C
38
00
3E
7F
67
07
7F
73
E3
7F
3E
ENDCHAR
STARTCHAR 00E2
ENCODING 226
SWIDTH 540 0
DWIDTH 9 0
BBX 8 14 0 0
BITMAP
08
1C
3F
36
00
3E
7F
67
0F
7F
63
F7
7F
3E
ENDCHAR
STARTCHAR 00E3
ENCODING 227
SWIDTH 540 0
DWIDTH 9 0
BBX 8 13 0 0
BITMAP
3F
7F
00
00
3E
7F
67
07
7F
73
E3
7F
3E
ENDCHAR
STARTCHAR 00E4
ENCODING 228
SWIDTH 540 0
DWIDTH 9 0
BBX 8 13 0 0
BITMAP
37
77
37
00
3E
7F
67
0F
7F
63
F7
7F
3E
ENDCHAR
STARTCHAR 00E5
ENCODING 229
SWIDTH 540 0
DWIDTH 9 0
BBX 8 14 0 0
BITMAP
1C
36
36
1C
00
3E
7F
67
0F
7F
63
F7
7F
3E
ENDCHAR
STARTCHAR 00E6
ENCODING 230
SWIDTH 840 0
DWIDTH 14 0
BBX 14 9 0 0
BITMAP
3CF0
7FF8
67B8
0F3C
7FF8
6780
F798
7FF8
3EF8
ENDCHAR
STARTCHAR 00E7
ENCODING 231
SWIDTH 480 0
DWIDTH 8 0
BBX 7 13 1 -4
BITMAP
3C
7E
F4
E0
C0
E0
E0
FE
7E
18
1C
38
38
ENDCHAR
STARTCHAR 00E8
ENCODING 232
SWIDTH 540 0
DWIDTH 9 0
BBX 8 14 1 0
BITMAP
20
70
3C
18
00
3C
FE
EF
CF
FF
E0
F2
7E
3E
ENDCHAR
STARTCHAR 00E9
ENCODING 233
SWIDTH 540 0
DWIDTH 9 0
BBX 8 14 1 0
BITMAP
08
1C
3C
70
00
3C
FE
EF
CF
FF
E0
F2
7E
3E
ENDCHAR
STARTCHAR 00EA
ENCODING 234
SWIDTH 540 0
DWIDTH 9 0
BBX 8 14 1 0
BITMAP
10
38
7E
6C
00
3C
FE
EF
CF
FF
E0
F2
7E
3E
ENDCHAR
STARTCHAR 00EB
ENCODING 235
SWIDTH 540 0
DWIDTH 9 0
BBX 8 13 1 0
BITMAP
6E
EE
6E
00
3C
FE
EF
CF
FF
E0
F2
7E
3E
ENDCHAR
STARTCHAR 00EC
ENCODING 236
SWIDTH 300 0
DWIDTH 5 0
BBX 4 14 0 0
BITMAP
80
C0
F0
70
20
70
70
70
70
70
70
70
70
70
ENDCHAR
STARTCHAR 00ED
ENCODING 237
SWIDTH 300 0
DWIDTH 5 0
BBX 4 14 1 0
BITMAP
20
70
F0
C0
00
E0
E0
E0
E0
E0
E0
E0
E0
E0
ENDCHAR
STARTCHAR 00EE
ENCODING 238
SWIDTH 300 0
DWIDTH 5 0
BBX 6 14 -1 0
BITMAP
10
78
FC
4C
00
38
38
38
38
38
38
38
38
38
ENDCHAR
STARTCHAR 00EF
ENCODING 239
SWIDTH 300 0
DWIDTH 5 0
BBX 7 13 -1 0
BITMAP
EC
EE
EC
00
38
38
38
38
38
38
38
38
38
ENDCHAR
STARTCHAR 00F0
ENCODING 240
SWIDTH 600 0
DWIDTH 10 0
BBX 8 13 1 0
BITMAP
19
3F
3F
3E
27
7F
FF
E7
C7
E7
E7
FE
3C
ENDCHAR
STARTCHAR 00F1
ENCODING 241
SWIDTH 600 0
DWIDTH 10 0
BBX 8 13 1 0
BITMAP
7E
7E
00
00
7C
FF
E7
E7
E7
E7
E7
E7
E7
ENDCHAR
STARTCHAR 00F2
ENCODING 242
SWIDTH 600 0
DWIDTH 10 0
BBX 8 14 1 0
BITMAP
20
38
3C
0C
00
3C
FE
E7
E7
C7
E7
E7
FE
3C
ENDCHAR
STARTCHAR 00F3
ENCODING 243
SWIDTH 600 0
DWIDTH 10 0
BBX 8 14 1 0
BITMAP
08
1C
3C
38
00
3C
FE
E7
E7
C7
E7
E7
FE
3C
ENDCHAR
STARTCHAR 00F4
ENCODING 244
SWIDTH 600 0
DWIDTH 10 0
BBX 8 14 1 0
BITMAP
10
3C
7E
66
00
3C
FE
E7
E7
C7
E7
E7
FE
3C
ENDCHAR
STARTCHAR 00F5
ENCODING 245
SWIDTH 600 0
DWIDTH 10 0
BBX 8 13 1 0
BITMAP
7E
7E
00
00
3C
FE
E7
E7
C7
E7
E7
FE
3C
ENDCHAR
STARTCHAR 00F6
ENCODING 246
SWIDTH 600 0
DWIDTH 10 0
BBX 8 13 1 0
BITMAP
66
7E
66
00
3C
FE
E7
E7
C7
E7
E7
FE
3C
ENDCHAR
STARTCHAR 00F7
ENCODING 247
SWIDTH 540 0
DWIDTH 9 0
BBX 7 8 1 1
BITMAP
38
38
00
FE
FE
00
38
38
ENDCHAR
STARTCHAR 00F8
ENCODING 248
SWIDTH 600 0
DWIDTH 10 0
BBX 8 11 1 -1
BITMAP
03
3F
FE
EF
CF
DB
F3
E7
FF
FC
40
ENDCHAR
STARTCHAR 00F9
ENCODING 249
SWIDTH 600 0
DWIDTH 10 0
BBX 8 14 1 0
BITMAP
20
38
3C
0C
00
E7
E7
E7
E7
E7
E7
E7
FF
3E
ENDCHAR
STARTCHAR 00FA
ENCODING 250
SWIDTH 600 0
DWIDTH 10 0
BBX 8 14 1 0
BITMAP
08
1C
3C
30
00
E7
E7
E7
E7
E7
E7
E7
FF
3E
ENDCHAR
STARTCHAR 00FB
ENCODING 251
SWIDTH 600 0
DWIDTH 10 0
BBX 8 14 1 0
BITMAP
10
3C
7E
66
00
E7
E7
E7
E7
E7
E7
E7
FF
3E
ENDCHAR
STARTCHAR 00FC
ENCODING 252
SWIDTH 600 0
DWIDTH 10 0
BBX 8 13 1 0
BITMAP
66
FE
66
00
E7
E7
E7
E7
E7
E7
E7
FF
3E
ENDCHAR
STARTCHAR 00FD
ENCODING 253
SWIDTH 540 0
DWIDTH 9 0
BBX 9 17 0 -3
BITMAP
0400
0E00
1E00
1800
0000
E380
6380
7380
7380
7700
3F00
3F00
1E00
1E00
3C00
7800
3800
ENDCHAR
STARTCHAR 00FE
ENCODING 254
SWIDTH 600 0
DWIDTH 10 0
BBX 8 15 1 -3
BITMAP
E0
E0
E0
FC
FF
EF
E7
E7
E7
EF
FF
FC
E0
E0
E0
ENDCHAR
STARTCHAR 00FF
ENCODING 255
SWIDTH 540 0
DWIDTH 9 0
BBX 9 16 0 -3
BITMAP
3700
7700
3700
0000
E380
6380
7380
7380
7700
3F00
3F00
1E00
1E00
3C00
7800
3800
ENDCHAR
STARTCHAR 0100
ENCODING 256
SWIDTH 660 0
DWIDTH 11 0
BBX 10 15 0 0
BITMAP
1F00
3F00
0000
0000
1E00
1F00
1F00
3B00
3B80
3380
7F80
7FC0
71C0
F1C0
61C0
ENDCHAR
STARTCHAR 0101
ENCODING 257
SWIDTH 540 0
DWIDTH 9 0
BBX 8 13 0 0
BITMAP
3E
3E
00
00
3E
7F
67
0F
7F
63
F7
7F
3E
ENDCHAR
STARTCHAR 0102
ENCODING 258
SWIDTH 660 0
DWIDTH 11 0
BBX 10 15 0 0
BITMAP
1B00
3F00
1E00
0000
1E00
1F00
1F00
3B00
3B80
3380
7F80
7FC0
71C0
F1C0
61C0
ENDCHAR
STARTCHAR 0103
ENCODING 259
SWIDTH 540 0
DWIDTH 9 0
BBX 8 13 0 0
BITMAP
32
3F
3E
00
3E
7F
67
0F
7F
63
F7
7F
3E
ENDCHAR
STARTCHAR 0104
ENCODING 260
SWIDTH 660 0
DWIDTH 11 0
BBX 11 14 0 -3
BITMAP
1E00
1F00
1F00
3B00
3B80
3380
7F80
7FC0
71C0
E1C0
61C0
01C0
01E0
01C0
ENDCHAR
STARTCHAR 0105
ENCODING 261
SWIDTH 540 0
DWIDTH 9 0
BBX 8 12 0 -3
BITMAP
3E
7F
67
0F
7F
63
F7
7F
3E
0E
0F
07
ENDCHAR
STARTCHAR 0106
ENCODING 262
SWIDTH 600 0
DWIDTH 10 0
BBX 8 15 1 0
BITMAP
06
1E
1C
10
1E
7F
F3
E0
E0
E0
E0
E0
FB
7F
1E
ENDCHAR
STARTCHAR 0107
ENCODING 263
SWIDTH 480 0
DWIDTH 8 0
BBX 7 14 1 0
BITMAP
08
1C
3C
38
00
3C
7E
F4
E0
C0
E0
F4
7E
3C
ENDCHAR
STARTCHAR 0108
ENCODING 264
SWIDTH 600 0
DWIDTH 10 0
BBX 8 16 1 0
BITMAP
08
1C
3F
36
00
1E
7F
F3
E0
E0
E0
E0
E0
FB
7F
1E
ENDCHAR
STARTCHAR 0109
ENCODING 265
SWIDTH 480 0
DWIDTH 8 0
BBX 7 14 1 0
BITMAP
10
3C
7E
66
00
3C
7E
F4
E0
C0
E0
F4
7E
3C
ENDCHAR
STARTCHAR 010A
ENCODING 266
SWIDTH 600 0
DWIDTH 10 0
BBX 8 15 1 0
BITMAP
0C
1C
0C
00
1E
7F
F3
E0
E0
E0
E0
E0
FB
7F
1E
ENDCHAR
STARTCHAR 010B
ENCODING 267
SWIDTH 480 0
DWIDTH 8 0
BBX 7 13 1 0
BITMAP
18
38
18
00
3C
7E
F4
E0
C0
E0
F4
7E
3C
ENDCHAR
STARTCHAR 010C
ENCODING 268
SWIDTH 600 0
DWIDTH 10 0
BBX 8 16 1 0
BITMAP
22
37
3E
1C
00
1E
7F
F3
E0
E0
E0
E0
E0
FF
7F
1E
ENDCHAR
STARTCHAR 010D
ENCODING 269
SWIDTH 480 0
DWIDTH 8 0
BBX 7 14 1 0
BITMAP
44
6E
7C
38
00
3C
7E
F4
E0
C0
E0
F4
7E
3C
ENDCHAR
STARTCHAR 010E
ENCODING 270
SWIDTH 660 0
DWIDTH 11 0
BBX 10 16 1 0
BITMAP
2200
3700
3E00
1C00
0000
FE00
FF00
E780
E380
E3C0
E1C0
E3C0
E380
EF80
FF00
7E00
ENDCHAR
STARTCHAR 010F
ENCODING 271
SWIDTH 840 0
DWIDTH 14 0
BBX 12 12 1 0
BITMAP
0730
0730
0730
3F70
FF60
F700
E700
C700
E700
F700
FF00
3E00
ENDCHAR
STARTCHAR 0110
ENCODING 272
SWIDTH 720 0
DWIDTH 12 0
BBX 11 11 0 0
BITMAP
3F00
3FC0
3BE0
38E0
FCE0
FCE0
38E0
38E0
3BE0
3FC0
3F00
ENDCHAR
STARTCHAR 0111
ENCODING 273
SWIDTH 600 0
DWIDTH 10 0
BBX 9 13 1 0
BITMAP
0700
0700
0F80
0F80
3F00
FF00
F700
E700
C700
E700
F700
FF00
3E00
ENDCHAR
STARTCHAR 0112
ENCODING 274
SWIDTH 540 0
DWIDTH 9 0
BBX 8 15 1 0
BITMAP
7E
7E
00
00
FE
FE
E0
E0
FE
FE
E0
E0
E0
FF
FE
ENDCHAR
STARTCHAR 0113
ENCODING 275
SWIDTH 540 0
DWIDTH 9 0
BBX 8 13 1 0
BITMAP
7C
7E
00
00
3C
FE
EF
CF
FF
E0
F2
7E
3E
ENDCHAR
STARTCHAR 0114
ENCODING 276
SWIDTH 540 0
DWIDTH 9 0
BBX 8 15 1 0
BITMAP
6C
7E
7C
00
FE
FE
E0
E0
FE
FE
E0
E0
E0
FF
FE
ENDCHAR
STARTCHAR 0115
ENCODING 277
SWIDTH 540 0
DWIDTH 9 0
BBX 8 13 1 0
BITMAP
66
7E
7C
00
3C
FE
EF
CF
FF
E0
F2
7E
3E
ENDCHAR
STARTCHAR 0116
ENCODING 278
SWIDTH 540 0
DWIDTH 9 0
BBX 8 15 1 0
BITMAP
38
38
38
00
FE
FE
E0
E0
FE
FE
E0
E0
E0
FF
FE
ENDCHAR
STARTCHAR 0117
ENCODING 279
SWIDTH 540 0
DWIDTH 9 0
BBX 8 13 1 0
BITMAP
18
38
18
00
3C
FE
EF
CF
FF
E0
F2
7E
3E
ENDCHAR
STARTCHAR 0118
ENCODING 280
SWIDTH 540 0
DWIDTH 9 0
BBX 8 14 1 -3
BITMAP
FE
FE
E0
E0
FE
FE
E0
E0
E0
FF
FE
0C
1E
0E
ENDCHAR
STARTCHAR 0119
ENCODING 281
SWIDTH 540 0
DWIDTH 9 0
BBX 8 12 1 -3
BITMAP
3C
FE
EF
C7
FF
E0
E2
7E
3C
1C
1E
0E
ENDCHAR
STARTCHAR 011A
ENCODING 282
SWIDTH 540 0
DWIDTH 9 0
BBX 8 16 1 0
BITMAP
44
6C
7C
38
00
FE
FE
E0
E0
FE
FE
E0
E0
E0
FF
FE
ENDCHAR
STARTCHAR 011B
ENCODING 283
SWIDTH 540 0
DWIDTH 9 0
BBX 8 14 1 0
BITMAP
44
6E
7C
38
00
3C
FE
EF
CF
FF
E0
F2
7E
3E
ENDCHAR
STARTCHAR 011C
ENCODING 284
SWIDTH 660 0
DWIDTH 11 0
BBX 9 16 1 0
BITMAP
0C00
3F00
3F00
1200
0000
1F00
7F80
F980
E000
E780
EF80
E180
E180
FB80
7F80
1F00
ENDCHAR
STARTCHAR 011D
ENCODING 285
SWIDTH 600 0
DWIDTH 10 0
BBX 8 17 1 -3
BITMAP
10
3C
7E
66
00
3C
FF
E7
C7
C7
E7
FF
7F
07
CF
FE
7C
ENDCHAR
STARTCHAR 011E
ENCODING 286
SWIDTH 660 0
DWIDTH 11 0
BBX 9 16 1 0
BITMAP
3300
3F00
1E00
0000
0000
1F00
7F80
F980
E000
E780
EF80
E180
E180
FB80
7F80
1F00
ENDCHAR
STARTCHAR 011F
ENCODING 287
SWIDTH 600 0
DWIDTH 10 0
BBX 8 16 1 -3
BITMAP
64
7E
7C
00
3C
FF
E7
C7
C7
E7
FF
7F
07
CF
FE
7C
ENDCHAR
STARTCHAR 0120
ENCODING 288
SWIDTH 660 0
DWIDTH 11 0
BBX 9 15 1 0
BITMAP
0C00
0E00
0C00
0000
1F00
7F80
F980
E000
E780
EF80
E180
E180
FB80
7F80
1F00
ENDCHAR
STARTCHAR 0121
ENCODING 289
SWIDTH 600 0
DWIDTH 10 0
BBX 8 16 1 -3
BITMAP
18
38
18
00
3C
FF
E7
C7
C7
E7
FF
7F
07
CF
FE
7C
ENDCHAR
STARTCHAR 0122
ENCODING 290
SWIDTH 660 0
DWIDTH 11 0
BBX 9 15 1 -4
BITMAP
1F00
7F80
F980
E000
E780
EF80
E180
E180
FB80
7F80
1F00
0000
0E00
0C00
1C00
ENDCHAR
STARTCHAR 0123
ENCODING 291
SWIDTH 600 0
DWIDTH 10 0
BBX 8 17 1 -3
BITMAP
1C
18
38
38
00
3C
FF
E7
C7
C7
E7
FF
7F
07
CF
FE
7C
ENDCHAR
STARTCHAR 0124
ENCODING 292
SWIDTH 660 0
DWIDTH 11 0
BBX 9 16 1 0
BITMAP
0800
1E00
3F00
3200
0000
E380
E380
E380
E380
FF80
FF80
E380
E380
E380
E180
E180
ENDCHAR
STARTCHAR 0125
ENCODING 293
SWIDTH 600 0
DWIDTH 10 0
BBX 10 16 -1 0
BITMAP
1000
7800
FC00
4C00
3800
3800
3800
3F80
3FC0
39C0
39C0
39C0
39C0
39C0
39C0
39C0
ENDCHAR
STARTCHAR 0126
ENCODING 294
SWIDTH 720 0
DWIDTH 12 0
BBX 12 11 0 0
BITMAP
70C0
70E0
FFF0
FFE0
7FE0
7FE0
70E0
70E0
70E0
70E0
30E0
ENDCHAR
STARTCHAR 0127
ENCODING 295
SWIDTH 600 0
DWIDTH 10 0
BBX 9 13 0 0
BITMAP
7000
7000
F800
F800
7F00
7F80
7380
7380
7380
7380
7380
7380
7380
ENDCHAR
STARTCHAR 0128
ENCODING 296
SWIDTH 300 0
DWIDTH 5 0
BBX 7 15 -1 0
BITMAP
7C
FE
00
00
38
38
38
38
38
38
38
38
38
38
38
ENDCHAR
STARTCHAR 0129
ENCODING 297
SWIDTH 300 0
DWIDTH 5 0
BBX 6 13 -1 0
BITMAP
FC
FC
00
00
38
38
38
38
38
38
38
38
38
ENDCHAR
STARTCHAR 012A
ENCODING 298
SWIDTH 300 0
DWIDTH 5 0
BBX 5 15 0 0
BITMAP
F8
F8
00
00
70
70
70
70
70
70
70
70
70
70
70
ENDCHAR
STARTCHAR 012B
ENCODING 299
SWIDTH 300 0
DWIDTH 5 0
BBX 5 12 0 0
BITMAP
F8
F8
00
70
70
70
70
70
70
70
70
70
ENDCHAR
STARTCHAR 012E
ENCODING 302
SWIDTH 300 0
DWIDTH 5 0
BBX 4 14 1 -3
BITMAP
E0
E0
E0
E0
E0
E0
E0
E0
E0
E0
60
E0
F0
70
ENDCHAR
STARTCHAR 012F
ENCODING 303
SWIDTH 300 0
DWIDTH 5 0
BBX 4 16 1 -3
BITMAP
E0
E0
E0
00
E0
E0
E0
E0
E0
E0
E0
E0
60
E0
F0
E0
ENDCHAR
STARTCHAR 0130
ENCODING 304
SWIDTH 300 0
DWIDTH 5 0
BBX 3 15 1 0
BITMAP
E0
E0
E0
00
E0
E0
E0
E0
E0
E0
E0
E0
E0
E0
E0
ENDCHAR
STARTCHAR 0131
ENCODING 305
SWIDTH 300 0
DWIDTH 5 0
BBX 3 9 1 0
BITMAP
E0
E0
E0
E0
E0
E0
E0
E0
E0
ENDCHAR
STARTCHAR 0134
ENCODING 308
SWIDTH 420 0
DWIDTH 7 0
BBX 7 16 0 0
BITMAP
1C
3E
76
22
00
1C
1C
1C
1C
1C
1C
1C
1C
7C
FC
78
ENDCHAR
STARTCHAR 0135
ENCODING 309
SWIDTH 300 0
DWIDTH 5 0
BBX 6 17 -1 -3
BITMAP
10
78
FC
CC
00
38
38
38
38
38
38
38
38
38
38
78
70
ENDCHAR
STARTCHAR 0136
ENCODING 310
SWIDTH 600 0
DWIDTH 10 0
BBX 9 15 1 -4
BITMAP
E300
E780
EF00
EF00
FE00
FC00
FC00
FE00
EF00
E780
E380
0000
1C00
1C00
3800
ENDCHAR
STARTCHAR 0137
ENCODING 311
SWIDTH 540 0
DWIDTH 9 0
BBX 8 16 1 -4
BITMAP
E0
E0
E0
E6
EF
FE
FC
F8
FC
EE
EF
E7
00
18
18
38
ENDCHAR
STARTCHAR 0138
ENCODING 312
SWIDTH 540 0
DWIDTH 9 0
BBX 8 9 1 0
BITMAP
E6
EF
FE
FC
F8
FC
FE
EF
E7
ENDCHAR
STARTCHAR 0139
ENCODING 313
SWIDTH 540 0
DWIDTH 9 0
BBX 7 15 1 0
BITMAP
30
78
E0
00
E0
E0
E0
E0
E0
E0
E0
E0
FE
FE
FE
ENDCHAR
STARTCHAR 013A
ENCODING 314
SWIDTH 300 0
DWIDTH 5 0
BBX 5 16 0 0
BITMAP
18
78
F0
00
70
70
70
70
70
70
70
70
70
70
70
70
ENDCHAR
STARTCHAR 013B
ENCODING 315
SWIDTH 540 0
DWIDTH 9 0
BBX 7 15 1 -4
BITMAP
E0
E0
E0
E0
E0
E0
E0
E0
FE
FE
FE
00
38
38
30
ENDCHAR
STARTCHAR 013C
ENCODING 316
SWIDTH 300 0
DWIDTH 5 0
BBX 4 16 0 -4
BITMAP
70
70
70
70
70
70
70
70
70
70
70
70
00
70
70
E0
ENDCHAR
STARTCHAR 013D
ENCODING 317
SWIDTH 540 0
DWIDTH 9 0
BBX 8 16 0 0
BITMAP
88
D8
F8
70
00
70
70
70
70
70
70
70
70
7F
7F
7F
ENDCHAR
STARTCHAR 013E
ENCODING 318
SWIDTH 540 0
DWIDTH 9 0
BBX 7 12 1 0
BITMAP
EE
EE
EE
EE
EC
E0
E0
E0
E0
E0
E0
E0
ENDCHAR
STARTCHAR 013F
ENCODING 319
SWIDTH 540 0
DWIDTH 9 0
BBX 8 11 1 0
BITMAP
E0
E0
E0
E6
EE
EF
E6
E0
FE
FE
FE
ENDCHAR
STARTCHAR 0140
ENCODING 320
SWIDTH 540 0
DWIDTH 9 0
BBX 7 12 1 0
BITMAP
E0
E0
E0
E0
EE
EE
EE
EE
E0
E0
E0
E0
ENDCHAR
STARTCHAR 0141
ENCODING 321
SWIDTH 540 0
DWIDTH 9 0
BBX 9 11 0 0
BITMAP
3800
3800
3A00
3E00
3E00
F800
F800
3800
3F80
3F80
3F80
ENDCHAR
STARTCHAR 0142
ENCODING 322
SWIDTH 420 0
DWIDTH 7 0
BBX 6 12 0 0
BITMAP
38
38
38
3C
3C
7C
F8
78
38
38
38
38
ENDCHAR
STARTCHAR 0143
ENCODING 323
SWIDTH 660 0
DWIDTH 11 0
BBX 9 15 1 0
BITMAP
0600
1E00
1C00
0000
E380
F380
FB80
FB80
FB80
FF80
ED80
EF80
E780
E780
E380
ENDCHAR
STARTCHAR 0144
ENCODING 324
SWIDTH 600 0
DWIDTH 10 0
BBX 8 14 1 0
BITMAP
08
1C
3C
38
00
7C
FF
E7
E7
E7
E7
E7
E7
E7
ENDCHAR
STARTCHAR 0145
ENCODING 325
SWIDTH 660 0
DWIDTH 11 0
BBX 9 15 1 -4
BITMAP
E380
F380
FB80
FB80
FB80
FF80
ED80
EF80
E780
E780
E380
0000
1C00
1C00
1800
ENDCHAR
STARTCHAR 0146
ENCODING 326
SWIDTH 600 0
DWIDTH 10 0
BBX 8 13 1 -4
BITMAP
7C
FF
E7
E7
E7
E7
E7
E7
E7
00
18
18
38
ENDCHAR
STARTCHAR 0147
ENCODING 327
SWIDTH 660 0
DWIDTH 11 0
BBX 9 16 1 0
BITMAP
2200
3700
3E00
1C00
0000
E380
F380
FB80
FB80
FB80
FF80
ED80
EF80
E780
E780
E380
ENDCHAR
STARTCHAR 0148
ENCODING 328
SWIDTH 600 0
DWIDTH 10 0
BBX 8 13 1 0
BITMAP
66
7E
3C
00
7C
FF
E7
E7
E7
E7
E7
E7
E7
ENDCHAR
STARTCHAR 0149
ENCODING 329
SWIDTH 780 0
DWIDTH 13 0
BBX 12 12 0 0
BITMAP
6000
6000
6000
E7C0
EFE0
0EF0
0E70
0E70
0E70
0E70
0E70
0E70
ENDCHAR
STARTCHAR 014C
ENCODING 332
SWIDTH 720 0
DWIDTH 12 0
BBX 10 15 1 0
BITMAP
3F00
3F00
0000
0000
1E00
7F80
F3C0
E1C0
E1C0
E1C0
E1C0
E1C0
F3C0
7F80
1E00
ENDCHAR
STARTCHAR 014D
ENCODING 333
SWIDTH 600 0
DWIDTH 10 0
BBX 8 13 1 0
BITMAP
7E
7E
00
00
3C
FE
E7
E7
C7
E7
E7
FE
3C
ENDCHAR
STARTCHAR 0150
ENCODING 336
SWIDTH 720 0
DWIDTH 12 0
BBX 10 16 1 0
BITMAP
1100
3B80
3F80
3300
0000
1E00
7F80
F3C0
E1C0
E1C0
E1C0
E1C0
E1C0
F3C0
7F80
1E00
ENDCHAR
STARTCHAR 0151
ENCODING 337
SWIDTH 600 0
DWIDTH 10 0
BBX 8 14 1 0
BITMAP
12
33
77
66
00
3C
FE
E7
E7
C7
E7
E7
FE
3C
ENDCHAR
STARTCHAR 0152
ENCODING 338
SWIDTH 960 0
DWIDTH 16 0
BBX 15 11 1 0
BITMAP
1EFC
7FFC
F3C0
E1C0
E1FC
E1FC
E1C0
E1C0
F3C0
7FFE
1FFC
ENDCHAR
STARTCHAR 0153
ENCODING 339
SWIDTH 900 0
DWIDTH 15 0
BBX 14 9 1 0
BITMAP
3CF0
FFF8
E7BC
E77C
C7F8
E700
E798
FFF8
3CF8
ENDCHAR
STARTCHAR 0154
ENCODING 340
SWIDTH 600 0
DWIDTH 10 0
BBX 9 15 1 0
BITMAP
0C00
1E00
3C00
1000
7C00
FF00
E700
E700
E700
FF00
FE00
EE00
E700
E780
E300
ENDCHAR
STARTCHAR 0155
ENCODING 341
SWIDTH 420 0
DWIDTH 7 0
BBX 6 14 1 0
BITMAP
10
38
78
70
00
78
FC
F0
E0
E0
E0
E0
E0
E0
ENDCHAR
STARTCHAR 0156
ENCODING 342
SWIDTH 600 0
DWIDTH 10 0
BBX 9 15 1 -4
BITMAP
7C00
FF00
E700
E700
E700
FF00
FE00
EE00
E700
E780
E300
0000
1C00
1800
3800
ENDCHAR
STARTCHAR 0157
ENCODING 343
SWIDTH 420 0
DWIDTH 7 0
BBX 6 13 1 -4
BITMAP
3C
FC
F0
E0
E0
E0
E0
E0
60
00
60
E0
E0
ENDCHAR
STARTCHAR 0158
ENCODING 344
SWIDTH 600 0
DWIDTH 10 0
BBX 9 15 1 0
BITMAP
6600
7E00
3C00
0000
7C00
FF00
E700
E700
E700
FF00
FE00
EE00
E700
E780
E300
ENDCHAR
STARTCHAR 0159
ENCODING 345
SWIDTH 420 0
DWIDTH 7 0
BBX 6 13 1 0
BITMAP
CC
FC
78
00
78
FC
FC
E0
E0
E0
E0
E0
E0
ENDCHAR
STARTCHAR 015A
ENCODING 346
SWIDTH 540 0
DWIDTH 9 0
BBX 8 15 1 0
BITMAP
0C
3C
38
20
7C
FE
E6
E0
F8
7E
1F
07
CF
FE
7C
ENDCHAR
STARTCHAR 015B
ENCODING 347
SWIDTH 480 0
DWIDTH 8 0
BBX 7 14 1 0
BITMAP
08
1C
3C
70
00
7C
FC
E4
F0
FC
1E
8E
FE
7C
ENDCHAR
STARTCHAR 015C
ENCODING 348
SWIDTH 540 0
DWIDTH 9 0
BBX 8 16 1 0
BITMAP
10
3C
7E
6C
00
7C
FE
E6
E0
F8
7E
1F
07
CF
FE
7C
ENDCHAR
STARTCHAR 015D
ENCODING 349
SWIDTH 480 0
DWIDTH 8 0
BBX 7 14 1 0
BITMAP
10
78
FC
CC
00
7C
FC
E4
F0
FC
1E
CE
FE
7C
ENDCHAR
STARTCHAR 015E
ENCODING 350
SWIDTH 540 0
DWIDTH 9 0
BBX 8 15 1 -4
BITMAP
7C
FE
E6
E0
F8
FE
3F
0F
87
FF
FE
38
18
38
38
ENDCHAR
STARTCHAR 015F
ENCODING 351
SWIDTH 480 0
DWIDTH 8 0
BBX 7 13 1 -4
BITMAP
7C
FC
E4
E0
FC
3E
8E
FE
FC
38
38
78
30
ENDCHAR
STARTCHAR 0160
ENCODING 352
SWIDTH 540 0
DWIDTH 9 0
BBX 8 16 1 0
BITMAP
44
6E
7C
38
00
7E
FE
E6
E0
F8
7E
1F
07
FF
FE
7C
ENDCHAR
STARTCHAR 0161
ENCODING 353
SWIDTH 480 0
DWIDTH 8 0
BBX 7 14 1 0
BITMAP
48
EC
7C
30
00
7C
FC
E4
F0
FC
1E
8E
FE
7C
ENDCHAR
STARTCHAR 0162
ENCODING 354
SWIDTH 540 0
DWIDTH 9 0
BBX 9 15 0 -4
BITMAP
FF80
FF80
1C00
1C00
1C00
1C00
1C00
1C00
1C00
1C00
1C00
0000
0C00
1C00
1C00
ENDCHAR
STARTCHAR 0163
ENCODING 355
SWIDTH 420 0
DWIDTH 7 0
BBX 5 15 1 -4
BITMAP
E0
E0
E0
F8
F8
E0
E0
E0
E8
F8
78
00
70
70
60
ENDCHAR
STARTCHAR 0164
ENCODING 356
SWIDTH 540 0
DWIDTH 9 0
BBX 9 16 0 0
BITMAP
2200
3F00
3E00
0C00
0000
FF80
FF80
1C00
1C00
1C00
1C00
1C00
1C00
1C00
1C00
1C00
ENDCHAR
STARTCHAR 0165
ENCODING 357
SWIDTH 660 0
DWIDTH 11 0
BBX 9 12 1 0
BITMAP
0180
E380
E380
E380
FB00
F800
E000
E000
E000
E800
F800
7800
ENDCHAR
STARTCHAR 0168
ENCODING 360
SWIDTH 660 0
DWIDTH 11 0
BBX 9 15 1 0
BITMAP
7F00
3E00
0000
0000
E380
E380
E380
E380
E380
E380
E380
E380
F780
7F00
3E00
ENDCHAR
STARTCHAR 0169
ENCODING 361
SWIDTH 600 0
DWIDTH 10 0
BBX 8 13 1 0
BITMAP
7E
7E
00
00
E7
E7
E7
E7
E7
E7
E7
FF
3E
ENDCHAR
STARTCHAR 016A
ENCODING 362
SWIDTH 660 0
DWIDTH 11 0
BBX 9 15 1 0
BITMAP
3E00
3E00
0000
0000
E380
E380
E380
E380
E380
E380
E380
E380
F780
7F00
3E00
ENDCHAR
STARTCHAR 016B
ENCODING 363
SWIDTH 600 0
DWIDTH 10 0
BBX 8 13 1 0
BITMAP
7E
7E
00
00
E7
E7
E7
E7
E7
E7
E7
FF
3E
ENDCHAR
STARTCHAR 016C
ENCODING 364
SWIDTH 660 0
DWIDTH 11 0
BBX 9 16 1 0
BITMAP
3200
3F00
3E00
0000
0000
E380
E380
E380
E380
E380
E380
E380
E380
F780
7F00
3E00
ENDCHAR
STARTCHAR 016D
ENCODING 365
SWIDTH 600 0
DWIDTH 10 0
BBX 8 13 1 0
BITMAP
66
7E
7E
00
E7
E7
E7
E7
E7
E7
E7
FF
3E
ENDCHAR
STARTCHAR 016E
ENCODING 366
SWIDTH 660 0
DWIDTH 11 0
BBX 9 16 1 0
BITMAP
1C00
1600
3600
1E00
0000
E380
E380
E380
E380
E380
E380
E380
E380
F780
7F00
3E00
ENDCHAR
STARTCHAR 016F
ENCODING 367
SWIDTH 600 0
DWIDTH 10 0
BBX 8 14 1 0
BITMAP
38
2C
2C
3C
00
E7
E7
E7
E7
E7
E7
E7
FF
3E
ENDCHAR
STARTCHAR 0170
ENCODING 368
SWIDTH 660 0
DWIDTH 11 0
BBX 9 16 1 0
BITMAP
1100
3B80
7700
2600
0000
E380
E380
E380
E380
E380
E380
E380
E380
F780
7F00
3E00
ENDCHAR
STARTCHAR 0171
ENCODING 369
SWIDTH 600 0
DWIDTH 10 0
BBX 8 14 1 0
BITMAP
12
37
77
66
00
E7
E7
E7
E7
E7
E7
E7
FF
3E
ENDCHAR
STARTCHAR 0172
ENCODING 370
SWIDTH 660 0
DWIDTH 11 0
BBX 9 14 1 -3
BITMAP
E380
E380
E380
E380
E380
E380
E380
E380
FF80
7F00
1C00
1C00
1E00
1C00
ENDCHAR
STARTCHAR 0173
ENCODING 371
SWIDTH 600 0
DWIDTH 10 0
BBX 8 12 1 -3
BITMAP
E7
E7
E7
E7
E7
E7
E7
FF
3E
0E
0F
0E
ENDCHAR
STARTCHAR 0174
ENCODING 372
SWIDTH 900 0
DWIDTH 15 0
BBX 13 16 1 0
BITMAP
0700
0F80
1FC0
0D80
0000
C038
E038
E738
E738
E738
EFB8
EDB8
7DB0
7DF0
7DF0
38E0
ENDCHAR
STARTCHAR 0175
ENCODING 373
SWIDTH 840 0
DWIDTH 14 0
BBX 13 14 0 0
BITMAP
0200
0780
0FC0
0CC0
0000
E038
6738
67B8
77B8
7FB0
7DB0
3DF0
3CF0
3CE0
ENDCHAR
STARTCHAR 0176
ENCODING 374
SWIDTH 600 0
DWIDTH 10 0
BBX 9 16 0 0
BITMAP
0C00
3E00
3F00
3300
0000
E180
F380
7380
7F80
3F00
1F00
1E00
0E00
0E00
0E00
0E00
ENDCHAR
STARTCHAR 0177
ENCODING 375
SWIDTH 540 0
DWIDTH 9 0
BBX 9 17 0 -3
BITMAP
0800
1C00
3F00
3600
0000
E380
6380
7380
7380
7700
3F00
3F00
1E00
1E00
3C00
7800
3800
ENDCHAR
STARTCHAR 0178
ENCODING 376
SWIDTH 600 0
DWIDTH 10 0
BBX 9 15 0 0
BITMAP
3300
3F00
3300
0000
E180
F380
7380
7F80
3F00
1F00
1E00
0E00
0E00
0E00
0E00
ENDCHAR
STARTCHAR 0179
ENCODING 377
SWIDTH 600 0
DWIDTH 10 0
BBX 8 15 1 0
BITMAP
0C
3C
38
00
FF
FF
0F
1E
1C
3C
78
F0
E0
FF
FF
ENDCHAR
STARTCHAR 017A
ENCODING 378
SWIDTH 480 0
DWIDTH 8 0
BBX 7 14 1 0
BITMAP
10
1C
78
70
00
FC
FE
1C
3C
78
70
E0
FE
FE
ENDCHAR
STARTCHAR 017B
ENCODING 379
SWIDTH 600 0
DWIDTH 10 0
BBX 8 15 1 0
BITMAP
18
38
18
00
FF
FF
0F
1E
1C
3C
78
F0
E0
FF
FF
ENDCHAR
STARTCHAR 017C
ENCODING 380
SWIDTH 480 0
DWIDTH 8 0
BBX 7 13 1 0
BITMAP
30
38
30
00
FC
FE
1C
3C
78
70
E0
FE
FE
ENDCHAR
STARTCHAR 017D
ENCODING 381
SWIDTH 600 0
DWIDTH 10 0
BBX 8 16 1 0
BITMAP
44
7E
3C
18
00
FF
FF
0F
1E
1C
3C
78
F0
FF
FF
FF
ENDCHAR
STARTCHAR 017E
ENCODING 382
SWIDTH 480 0
DWIDTH 8 0
BBX 7 14 1 0
BITMAP
48
EC
FC
78
10
FC
FE
1C
3C
78
70
E0
FE
FE
ENDCHAR
STARTCHAR 018F
ENCODING 399
SWIDTH 660 0
DWIDTH 11 0
BBX 10 11 1 0
BITMAP
7E00
FF00
E780
0380
0FC0
FFC0
F9C0
E1C0
F380
7F80
3E00
ENDCHAR
STARTCHAR 0192
ENCODING 402
SWIDTH 540 0
DWIDTH 9 0
BBX 9 14 0 -2
BITMAP
0780
0F80
1E80
1C00
1C00
1F80
1F00
1C00
3800
3800
3800
3800
F800
F000
ENDCHAR
STARTCHAR 01A0
ENCODING 416
SWIDTH 780 0
DWIDTH 13 0
BBX 12 12 1 0
BITMAP
0030
1E30
7FB0
F3F0
E1E0
E1C0
E1C0
E1C0
E1C0
F3C0
7F80
1E00
ENDCHAR
STARTCHAR 01A1
ENCODING 417
SWIDTH 660 0
DWIDTH 11 0
BBX 10 11 1 0
BITMAP
00C0
00C0
3CC0
FFC0
E780
E700
C700
E700
E700
FE00
3C00
ENDCHAR
STARTCHAR 01AF
ENCODING 431
SWIDTH 780 0
DWIDTH 13 0
BBX 13 12 1 0
BITMAP
0030
E3B8
E3B0
E3F0
E3E0
E380
E380
E380
E380
F780
7F00
3E00
ENDCHAR
STARTCHAR 01B0
ENCODING 432
SWIDTH 720 0
DWIDTH 12 0
BBX 11 11 1 0
BITMAP
0060
0060
E7E0
E7E0
E7C0
E700
E700
E700
E700
FF00
3E00
ENDCHAR
STARTCHAR 01CD
ENCODING 461
SWIDTH 660 0
DWIDTH 11 0
BBX 10 16 0 0
BITMAP
1200
3B00
1F00
0E00
0000
1E00
1F00
1F00
3B00
3B80
3380
7F80
7FC0
71C0
F1C0
61C0
ENDCHAR
STARTCHAR 01CE
ENCODING 462
SWIDTH 540 0
DWIDTH 9 0
BBX 8 14 0 0
BITMAP
22
37
3E
1C
00
3E
7F
67
07
7F
73
E3
7F
3E
ENDCHAR
STARTCHAR 01CF
ENCODING 463
SWIDTH 300 0
DWIDTH 5 0
BBX 5 16 0 0
BITMAP
88
D8
F8
70
00
70
70
70
70
70
70
70
70
70
70
70
ENDCHAR
STARTCHAR 01D0
ENCODING 464
SWIDTH 300 0
DWIDTH 5 0
BBX 6 14 -1 0
BITMAP
48
EC
7C
38
10
38
38
38
38
38
38
38
38
38
ENDCHAR
STARTCHAR 01D1
ENCODING 465
SWIDTH 720 0
DWIDTH 12 0
BBX 10 16 1 0
BITMAP
1200
3F00
1E00
0C00
0000
1E00
7F80
F3C0
E1C0
E1C0
E1C0
E1C0
E1C0
F3C0
7F80
1E00
ENDCHAR
STARTCHAR 01D2
ENCODING 466
SWIDTH 600 0
DWIDTH 10 0
BBX 8 14 1 0
BITMAP
24
7E
3E
18
00
3C
FE
E7
E7
C7
E7
E7
FE
3C
ENDCHAR
STARTCHAR 01D3
ENCODING 467
SWIDTH 660 0
DWIDTH 11 0
BBX 9 16 1 0
BITMAP
2200
7600
3E00
1C00
0000
E380
E380
E380
E380
E380
E380
E380
E380
F780
7F00
3E00
ENDCHAR
STARTCHAR 01D4
ENCODING 468
SWIDTH 600 0
DWIDTH 10 0
BBX 8 14 1 0
BITMAP
44
7E
7C
18
00
E7
E7
E7
E7
E7
E7
E7
FF
3E
ENDCHAR
STARTCHAR 01D5
ENCODING 469
SWIDTH 660 0
DWIDTH 11 0
BBX 9 18 1 0
BITMAP
3E00
3E00
0000
7700
7700
7700
0000
E380
E380
E380
E380
E380
E380
E380
E380
F780
7F00
3E00
ENDCHAR
STARTCHAR 01D6
ENCODING 470
SWIDTH 600 0
DWIDTH 10 0
BBX 8 16 1 0
BITMAP
7E
7E
00
66
7E
66
00
E7
E7
E7
E7
E7
E7
E7
FF
3E
ENDCHAR
STARTCHAR 01D7
ENCODING 471
SWIDTH 720 0
DWIDTH 12 0
BBX 10 16 1 0
BITMAP
0400
0E00
FFC0
ECC0
0000
61C0
71C0
71C0
71C0
71C0
71C0
71C0
71C0
7F80
7F80
1F00
ENDCHAR
STARTCHAR 01D8
ENCODING 472
SWIDTH 600 0
DWIDTH 10 0
BBX 8 17 1 0
BITMAP
0C
1E
1C
10
66
FE
66
00
E7
E7
E7
E7
E7
E7
E7
FF
3E
ENDCHAR
STARTCHAR 01D9
ENCODING 473
SWIDTH 660 0
DWIDTH 11 0
BBX 9 19 1 0
BITMAP
2200
3600
3E00
1C00
6300
7380
6300
0000
E380
E380
E380
E380
E380
E380
E380
E380
F780
7F00
3E00
ENDCHAR
STARTCHAR 01DA
ENCODING 474
SWIDTH 600 0
DWIDTH 10 0
BBX 8 17 1 0
BITMAP
64
7E
3C
10
66
FE
66
00
E7
E7
E7
E7
E7
E7
E7
FF
3E
ENDCHAR
STARTCHAR 01DB
ENCODING 475
SWIDTH 720 0
DWIDTH 12 0
BBX 10 16 1 0
BITMAP
0800
1C00
EFC0
E6C0
0000
61C0
71C0
71C0
71C0
71C0
71C0
71C0
71C0
7F80
7F80
1F00
ENDCHAR
STARTCHAR 01DC
ENCODING 476
SWIDTH 600 0
DWIDTH 10 0
BBX 8 17 1 0
BITMAP
60
78
38
10
66
FE
66
00
E7
E7
E7
E7
E7
E7
E7
FF
3E
ENDCHAR
STARTCHAR 01E6
ENCODING 486
SWIDTH 660 0
DWIDTH 11 0
BBX 9 16 1 0
BITMAP
2200
3F00
3E00
0C00
0000
1F00
7F80
F980
E000
E780
EF80
E180
E180
FB80
7F80
1F00
ENDCHAR
STARTCHAR 01E7
ENCODING 487
SWIDTH 600 0
DWIDTH 10 0
BBX 8 17 1 -3
BITMAP
44
6E
7C
18
00
3C
FF
E7
C7
C7
E7
FF
7F
07
CF
FE
7C
ENDCHAR
STARTCHAR 0218
ENCODING 536
SWIDTH 540 0
DWIDTH 9 0
BBX 8 15 1 -4
BITMAP
7C
FE
E6
E0
F8
7E
1F
07
CF
FE
7C
00
18
18
38
ENDCHAR
STARTCHAR 0219
ENCODING 537
SWIDTH 480 0
DWIDTH 8 0
BBX 7 13 1 -4
BITMAP
7C
FC
E4
F0
FC
1E
CE
FE
7C
00
38
38
30
ENDCHAR
STARTCHAR 021A
ENCODING 538
SWIDTH 540 0
DWIDTH 9 0
BBX 9 15 0 -4
BITMAP
FF80
FF80
1C00
1C00
1C00
1C00
1C00
1C00
1C00
1C00
1C00
0000
1C00
1C00
1800
ENDCHAR
STARTCHAR 021B
ENCODING 539
SWIDTH 420 0
DWIDTH 7 0
BBX 5 15 1 -4
BITMAP
E0
E0
E0
F8
F8
E0
E0
E0
E8
F8
78
00
70
70
60
ENDCHAR
STARTCHAR 0237
ENCODING 567
SWIDTH 300 0
DWIDTH 5 0
BBX 4 12 0 -3
BITMAP
70
70
70
70
70
70
70
70
70
70
F0
E0
ENDCHAR
STARTCHAR 0251
ENCODING 593
SWIDTH 600 0
DWIDTH 10 0
BBX 9 9 1 0
BITMAP
3E00
7F00
F700
E700
C700
E700
E700
FF80
3F00
ENDCHAR
STARTCHAR 0259
ENCODING 601
SWIDTH 540 0
DWIDTH 9 0
BBX 8 9 1 0
BITMAP
78
FE
CE
07
FF
E7
EE
FE
7C
ENDCHAR
STARTCHAR 0261
ENCODING 609
SWIDTH 600 0
DWIDTH 10 0
BBX 8 12 1 -3
BITMAP
3C
FF
E7
C7
C7
E7
FF
7F
07
CF
FE
7C
ENDCHAR
STARTCHAR 02BB
ENCODING 699
SWIDTH 240 0
DWIDTH 4 0
BBX 3 5 0 7
BITMAP
60
60
60
E0
60
ENDCHAR
STARTCHAR 02BC
ENCODING 700
SWIDTH 240 0
DWIDTH 4 0
BBX 3 5 0 7
BITMAP
60
60
60
E0
E0
ENDCHAR
STARTCHAR 02BE
ENCODING 702
SWIDTH 300 0
DWIDTH 5 0
BBX 4 6 0 6
BITMAP
60
F0
30
30
F0
60
ENDCHAR
STARTCHAR 02BF
ENCODING 703
SWIDTH 300 0
DWIDTH 5 0
BBX 3 6 1 6
BITMAP
60
E0
C0
C0
E0
60
ENDCHAR
STARTCHAR 02C6
ENCODING 710
SWIDTH 360 0
DWIDTH 6 0
BBX 6 4 0 10
BITMAP
20
78
FC
CC
ENDCHAR
STARTCHAR 02C7
ENCODING 711
SWIDTH 360 0
DWIDTH 6 0
BBX 6 4 0 10
BITMAP
88
FC
FC
30
ENDCHAR
STARTCHAR 02C8
ENCODING 712
SWIDTH 360 0
DWIDTH 6 0
BBX 2 5 2 10
BITMAP
C0
C0
C0
C0
C0
ENDCHAR
STARTCHAR 02C9
ENCODING 713
SWIDTH 360 0
DWIDTH 6 0
BBX 6 2 0 10
BITMAP
FC
FC
ENDCHAR
STARTCHAR 02CA
ENCODING 714
SWIDTH 300 0
DWIDTH 5 0
BBX 5 4 0 9
BITMAP
38
78
F0
40
ENDCHAR
STARTCHAR 02CB
ENCODING 715
SWIDTH 300 0
DWIDTH 5 0
BBX 5 4 0 10
BITMAP
60
F0
78
30
ENDCHAR
STARTCHAR 02CC
ENCODING 716
SWIDTH 420 0
DWIDTH 7 0
BBX 2 5 2 -7
BITMAP
C0
C0
C0
C0
C0
ENDCHAR
STARTCHAR 02D8
ENCODING 728
SWIDTH 360 0
DWIDTH 6 0
BBX 6 3 0 10
BITMAP
DC
FC
78
ENDCHAR
STARTCHAR 02D9
ENCODING 729
SWIDTH 240 0
DWIDTH 4 0
BBX 3 3 0 10
BITMAP
60
E0
60
ENDCHAR
STARTCHAR 02DA
ENCODING 730
SWIDTH 300 0
DWIDTH 5 0
BBX 5 4 0 10
BITMAP
70
D8
D8
70
ENDCHAR
STARTCHAR 02DB
ENCODING 731
SWIDTH 240 0
DWIDTH 4 0
BBX 4 5 0 -4
BITMAP
40
60
E0
F0
70
ENDCHAR
STARTCHAR 02DC
ENCODING 732
SWIDTH 360 0
DWIDTH 6 0
BBX 6 2 0 10
BITMAP
FC
FC
ENDCHAR
STARTCHAR 02DD
ENCODING 733
SWIDTH 480 0
DWIDTH 8 0
BBX 8 4 0 10
BITMAP
33
77
EE
44
ENDCHAR
STARTCHAR 0300
ENCODING 768
SWIDTH 300 0
DWIDTH 5 0
BBX 5 4 0 10
BITMAP
60
F0
78
30
ENDCHAR
STARTCHAR 0301
ENCODING 769
SWIDTH 300 0
DWIDTH 5 0
BBX 5 4 0 9
BITMAP
38
78
F0
40
ENDCHAR
STARTCHAR 0302
ENCODING 770
SWIDTH 360 0
DWIDTH 6 0
BBX 6 4 0 10
BITMAP
20
78
FC
CC
ENDCHAR
STARTCHAR 0303
ENCODING 771
SWIDTH 0 0
DWIDTH 0 0
BBX 6 2 -6 10
BITMAP
FC
FC
ENDCHAR
STARTCHAR 0304
ENCODING 772
SWIDTH 300 0
DWIDTH 5 0
BBX 6 2 0 10
BITMAP
FC
FC
ENDCHAR
STARTCHAR 0306
ENCODING 774
SWIDTH 360 0
DWIDTH 6 0
BBX 6 3 0 10
BITMAP
DC
FC
78
ENDCHAR
STARTCHAR 0307
ENCODING 775
SWIDTH 240 0
DWIDTH 4 0
BBX 3 3 0 10
BITMAP
60
E0
60
ENDCHAR
STARTCHAR 0308
ENCODING 776
SWIDTH 420 0
DWIDTH 7 0
BBX 7 3 0 10
BITMAP
CC
EE
CC
ENDCHAR
STARTCHAR 0309
ENCODING 777
SWIDTH 240 0
DWIDTH 4 0
BBX 3 4 1 9
BITMAP
E0
E0
C0
40
ENDCHAR
STARTCHAR 030A
ENCODING 778
SWIDTH 300 0
DWIDTH 5 0
BBX 5 4 0 10
BITMAP
70
D8
D8
70
ENDCHAR
STARTCHAR 030B
ENCODING 779
SWIDTH 480 0
DWIDTH 8 0
BBX 8 4 0 10
BITMAP
33
77
EE
44
ENDCHAR
STARTCHAR 030C
ENCODING 780
SWIDTH 360 0
DWIDTH 6 0
BBX 6 4 0 10
BITMAP
88
FC
FC
30
ENDCHAR
STARTCHAR 031B
ENCODING 795
SWIDTH 240 0
DWIDTH 4 0
BBX 3 5 0 6
BITMAP
60
60
E0
E0
40
ENDCHAR
STARTCHAR 0323
ENCODING 803
SWIDTH 240 0
DWIDTH 4 0
BBX 3 3 0 10
BITMAP
60
E0
60
ENDCHAR
STARTCHAR 0324
ENCODING 804
SWIDTH 360 0
DWIDTH 6 0
BBX 6 2 0 -4
BITMAP
EC
EC
ENDCHAR
STARTCHAR 0326
ENCODING 806
SWIDTH 240 0
DWIDTH 4 0
BBX 3 4 0 -5
BITMAP
20
60
E0
C0
ENDCHAR
STARTCHAR 0327
ENCODING 807
SWIDTH 180 0
DWIDTH 3 0
BBX 3 4 0 -4
BITMAP
E0
60
E0
E0
ENDCHAR
STARTCHAR 0328
ENCODING 808
SWIDTH 240 0
DWIDTH 4 0
BBX 4 4 0 -4
BITMAP
60
E0
F0
60
ENDCHAR
STARTCHAR 032E
ENCODING 814
SWIDTH 360 0
DWIDTH 6 0
BBX 6 3 0 -4
BITMAP
DC
FC
78
ENDCHAR
STARTCHAR 0331
ENCODING 817
SWIDTH 360 0
DWIDTH 6 0
BBX 6 2 0 -3
BITMAP
FC
FC
ENDCHAR
STARTCHAR 03C0
ENCODING 960
SWIDTH 660 0
DWIDTH 11 0
BBX 10 8 1 0
BITMAP
FFC0
FFC0
7700
7700
7700
7700
7380
7380
ENDCHAR
STARTCHAR 0900
ENCODING 2304
SWIDTH 0 0
DWIDTH 0 0
BBX 7 6 -6 12
BITMAP
30
7C
FE
54
38
10
ENDCHAR
STARTCHAR 0901
ENCODING 2305
SWIDTH 0 0
DWIDTH 0 0
BBX 7 6 -6 11
BITMAP
10
38
54
FE
7C
30
ENDCHAR
STARTCHAR 0902
ENCODING 2306
SWIDTH 0 0
DWIDTH 0 0
BBX 3 3 -4 12
BITMAP
E0
E0
E0
ENDCHAR
STARTCHAR 0903
ENCODING 2307
SWIDTH 240 0
DWIDTH 4 0
BBX 6 10 -1 1
BITMAP
F8
FC
00
30
70
30
00
30
70
30
ENDCHAR
STARTCHAR 0904
ENCODING 2308
SWIDTH 780 0
DWIDTH 13 0
BBX 14 16 0 0
BITMAP
0E00
0FC0
0FF0
03F0
0030
3CFC
7EFC
4F70
0670
3E70
3FF0
3FF0
0770
FF70
7E70
1830
ENDCHAR
STARTCHAR 0905
ENCODING 2309
SWIDTH 780 0
DWIDTH 13 0
BBX 14 11 0 0
BITMAP
3CFC
7EFC
4F70
0670
3E70
3FF0
3FF0
0770
FF70
7E70
1830
ENDCHAR
STARTCHAR 0906
ENCODING 2310
SWIDTH 1080 0
DWIDTH 18 0
BBX 19 11 0 0
BITMAP
3CFFE0
7EFFE0
4F7380
067380
3E7380
3FF380
3FF380
077380
FF7380
7E7380
183180
ENDCHAR
STARTCHAR 0907
ENCODING 2311
SWIDTH 540 0
DWIDTH 9 0
BBX 11 14 -1 -3
BITMAP
FFE0
FFE0
0F80
3F80
3F80
3A00
3F80
1FC0
21C0
7FC0
3F00
0E00
0F00
0600
ENDCHAR
STARTCHAR 0908
ENCODING 2312
SWIDTH 540 0
DWIDTH 9 0
BBX 11 19 -1 -3
BITMAP
01C0
03C0
0300
0300
0300
FFE0
FFE0
0F80
3F80
3F80
3A00
3F80
0FC0
31C0
7FC0
3F00
0E00
0F00
0600
ENDCHAR
STARTCHAR 0909
ENCODING 2313
SWIDTH 480 0
DWIDTH 8 0
BBX 10 11 -1 0
BITMAP
FFC0
FFC0
0700
0300
1F00
1E00
1F00
0380
2380
7F00
3E00
ENDCHAR
STARTCHAR 090A
ENCODING 2314
SWIDTH 780 0
DWIDTH 13 0
BBX 15 11 -1 0
BITMAP
FFFE
FFFE
0700
0300
1F20
1EF8
1FFC
039C
239C
7F3C
3E38
ENDCHAR
STARTCHAR 090B
ENCODING 2315
SWIDTH 840 0
DWIDTH 14 0
BBX 16 11 -1 0
BITMAP
FFFF
FFFF
0180
3998
3F9C
3FFC
03FC
0F8E
3F8E
3DBE
319C
ENDCHAR
STARTCHAR 090C
ENCODING 2316
SWIDTH 780 0
DWIDTH 13 0
BBX 15 14 -1 -3
BITMAP
FFFE
FFFE
0070
0C70
3FF8
3FFC
3B9C
339C
3878
3E78
1CE0
00FC
007C
0018
ENDCHAR
STARTCHAR 090D
ENCODING 2317
SWIDTH 600 0
DWIDTH 10 0
BBX 11 16 -1 -1
BITMAP
1F80
1F80
0600
0000
FFE0
FFE0
39C0
39C0
39C0
39C0
39C0
3800
3E00
0F80
07C0
01C0
ENDCHAR
STARTCHAR 090E
ENCODING 2318
SWIDTH 600 0
DWIDTH 10 0
BBX 11 17 -1 -1
BITMAP
3800
3E00
3F80
03C0
01C0
FFE0
FFE0
39C0
39C0
39C0
39C0
39C0
3800
3E00
0F80
07C0
01C0
ENDCHAR
STARTCHAR 090F
ENCODING 2319
SWIDTH 600 0
DWIDTH 10 0
BBX 11 12 -1 -1
BITMAP
FFE0
FFE0
39C0
39C0
39C0
39C0
39C0
3800
3E00
0F80
07C0
01C0
ENDCHAR
STARTCHAR 0910
ENCODING 2320
SWIDTH 600 0
DWIDTH 10 0
BBX 11 17 -1 -1
BITMAP
1C00
1E00
0F00
0700
0380
FFE0
FFE0
39C0
39C0
39C0
39C0
3980
3C00
1F00
0F80
03C0
0080
ENDCHAR
STARTCHAR 0911
ENCODING 2321
SWIDTH 1080 0
DWIDTH 18 0
BBX 19 16 0 0
BITMAP
001100
003F00
003F00
000C00
000000
3CFFE0
7EFFE0
4F7380
067380
3E7380
3FF380
3FF380
077380
FF7380
7E7380
183180
ENDCHAR
STARTCHAR 0912
ENCODING 2322
SWIDTH 1080 0
DWIDTH 18 0
BBX 19 16 0 0
BITMAP
006000
007E00
007F80
001F80
000180
3CFFE0
7EFFE0
4F7380
067380
3E7380
3FF380
3FF380
077380
FF7380
7E7380
183180
ENDCHAR
STARTCHAR 0913
ENCODING 2323
SWIDTH 1080 0
DWIDTH 18 0
BBX 19 16 0 0
BITMAP
001C00
001E00
001F00
000700
000380
7CFFE0
7EFFE0
4F7380
067380
3E7380
3FF380
3FF380
477380
FF7380
7E7380
183180
ENDCHAR
STARTCHAR 0914
ENCODING 2324
SWIDTH 1080 0
DWIDTH 18 0
BBX 19 17 0 -1
BITMAP
000700
000780
001B80
003D80
000780
3CFFE0
7EFFE0
4E7380
077380
3E7380
3FF380
3FF380
067380
477380
FF7380
7E7180
180000
ENDCHAR
STARTCHAR 0915
ENCODING 2325
SWIDTH 840 0
DWIDTH 14 0
BBX 16 11 -1 0
BITMAP
FFFF
FFFF
01C0
09F0
3DFC
3DFE
71CE
3FDE
3FFC
0DD8
01C0
ENDCHAR
STARTCHAR 0916
ENCODING 2326
SWIDTH 900 0
DWIDTH 15 0
BBX 16 11 -1 0
BITMAP
FFFF
FFFF
0C4E
0EEE
1FEE
7DCE
7DFE
38FE
1E2E
0F0E
070E
ENDCHAR
STARTCHAR 0917
ENCODING 2327
SWIDTH 660 0
DWIDTH 11 0
BBX 12 11 -1 0
BITMAP
FFF0
FFF0
1CC0
1CC0
1CC0
1CC0
7CC0
78C0
30C0
00C0
00C0
ENDCHAR
STARTCHAR 0918
ENCODING 2328
SWIDTH 660 0
DWIDTH 11 0
BBX 13 11 -1 0
BITMAP
FFF8
FFF8
30E0
3EE0
3EE0
3EE0
38E0
3FE0
3FE0
07E0
00E0
ENDCHAR
STARTCHAR 0919
ENCODING 2329
SWIDTH 660 0
DWIDTH 11 0
BBX 13 11 -1 0
BITMAP
FFF8
FFF8
0F80
3F80
3FB0
3B38
3FB0
1FC0
21C0
7FC0
1F00
ENDCHAR
STARTCHAR 091A
ENCODING 2330
SWIDTH 720 0
DWIDTH 12 0
BBX 13 11 -1 0
BITMAP
FFF8
FFF8
0070
3E70
7F70
3F70
1870
1FF0
1FF0
0770
0070
ENDCHAR
STARTCHAR 091B
ENCODING 2331
SWIDTH 780 0
DWIDTH 13 0
BBX 15 11 -1 0
BITMAP
FFFE
FFFE
3830
3070
3EF8
1EDC
3EF8
38F8
3838
1FF0
0FC0
ENDCHAR
STARTCHAR 091C
ENCODING 2332
SWIDTH 780 0
DWIDTH 13 0
BBX 14 11 -1 0
BITMAP
FFFC
FFFC
0038
1FF8
1FF8
1FF8
0338
23B8
7FB8
3F38
0C38
ENDCHAR
STARTCHAR 091D
ENCODING 2333
SWIDTH 840 0
DWIDTH 14 0
BBX 16 14 -1 -3
BITMAP
FFFF
FFFF
0F9C
3F9C
3F9C
3A1C
3FFC
1FFC
21DC
7FDC
3F9C
0E00
0F00
0600
ENDCHAR
STARTCHAR 091E
ENCODING 2334
SWIDTH 720 0
DWIDTH 12 0
BBX 14 11 -1 0
BITMAP
FFFC
FFFC
0070
1870
3E70
3FF0
07F0
2FF0
7E70
1870
0070
ENDCHAR
STARTCHAR 091F
ENCODING 2335
SWIDTH 540 0
DWIDTH 9 0
BBX 11 11 -1 0
BITMAP
FFE0
FFE0
0380
0780
1F80
3F80
3000
3000
38C0
3FC0
0F80
ENDCHAR
STARTCHAR 0920
ENCODING 2336
SWIDTH 600 0
DWIDTH 10 0
BBX 12 11 -1 0
BITMAP
FFF0
FFF0
0380
0780
1FC0
3FC0
30E0
30E0
39E0
3FC0
0F80
ENDCHAR
STARTCHAR 0921
ENCODING 2337
SWIDTH 540 0
DWIDTH 9 0
BBX 11 11 -1 0
BITMAP
FFE0
FFE0
0F80
3F80
3F80
3B00
3F80
1FC0
21C0
7FC0
1F00
ENDCHAR
STARTCHAR 0922
ENCODING 2338
SWIDTH 600 0
DWIDTH 10 0
BBX 12 11 -1 0
BITMAP
FFF0
FFF0
01C0
07C0
3FC0
3F80
3180
37C0
3FE0
3FC0
0F80
ENDCHAR
STARTCHAR 0923
ENCODING 2339
SWIDTH 840 0
DWIDTH 14 0
BBX 15 11 -1 0
BITMAP
FFFE
FFFE
3B98
3B98
3B98
3B98
3F98
1F18
0418
0018
0018
ENDCHAR
STARTCHAR 0924
ENCODING 2340
SWIDTH 660 0
DWIDTH 11 0
BBX 12 11 -1 0
BITMAP
FFF0
FFF0
00C0
0EC0
1FC0
3FC0
38C0
30C0
38C0
38C0
1CC0
ENDCHAR
STARTCHAR 0925
ENCODING 2341
SWIDTH 720 0
DWIDTH 12 0
BBX 12 11 0 0
BITMAP
3CF0
7EF0
EEE0
6EE0
1EE0
FCE0
70E0
7FE0
3FE0
0EE0
00E0
ENDCHAR
STARTCHAR 0926
ENCODING 2342
SWIDTH 540 0
DWIDTH 9 0
BBX 11 13 -1 -2
BITMAP
FFE0
FFE0
0380
0780
1F80
3F80
3180
31C0
3FC0
1F80
0780
01C0
00E0
ENDCHAR
STARTCHAR 0927
ENCODING 2343
SWIDTH 720 0
DWIDTH 12 0
BBX 12 11 0 0
BITMAP
3CF0
7EF0
EEE0
E4E0
7CE0
3CE0
7CE0
71E0
7FE0
7FE0
0CE0
ENDCHAR
STARTCHAR 0928
ENCODING 2344
SWIDTH 600 0
DWIDTH 10 0
BBX 12 11 -1 0
BITMAP
FFF0
FFF0
01C0
01C0
1FC0
3FC0
3FC0
31C0
01C0
01C0
01C0
ENDCHAR
STARTCHAR 0929
ENCODING 2345
SWIDTH 600 0
DWIDTH 10 0
BBX 12 12 -1 -1
BITMAP
FFF0
FFF0
01C0
01C0
1FC0
3FC0
3FC0
31C0
01C0
19C0
19C0
1800
ENDCHAR
STARTCHAR 092A
ENCODING 2346
SWIDTH 600 0
DWIDTH 10 0
BBX 12 11 -1 0
BITMAP
FFF0
FFF0
39C0
39C0
39C0
39C0
3FC0
1FC0
05C0
01C0
01C0
ENDCHAR
STARTCHAR 092B
ENCODING 2347
SWIDTH 900 0
DWIDTH 15 0
BBX 16 11 -1 0
BITMAP
FFFF
FFFF
39C0
39D0
39FC
39FE
3FCE
1FCE
05DE
01DC
01D8
ENDCHAR
STARTCHAR 092C
ENCODING 2348
SWIDTH 600 0
DWIDTH 10 0
BBX 12 11 -1 0
BITMAP
FFF0
FFF0
0CC0
3EC0
3EC0
3CC0
76C0
3DC0
1FC0
06C0
00C0
ENDCHAR
STARTCHAR 092D
ENCODING 2349
SWIDTH 660 0
DWIDTH 11 0
BBX 12 11 0 0
BITMAP
F3F0
FBF0
B9C0
39C0
39C0
3FC0
7FC0
7FC0
71C0
01C0
01C0
ENDCHAR
STARTCHAR 092E
ENCODING 2350
SWIDTH 660 0
DWIDTH 11 0
BBX 13 11 -1 0
BITMAP
FFF0
FFF8
1CE0
1CE0
1CE0
1FE0
7FE0
7FE0
38E0
00E0
00E0
ENDCHAR
STARTCHAR 092F
ENCODING 2351
SWIDTH 660 0
DWIDTH 11 0
BBX 13 11 -1 0
BITMAP
FFF8
FFF8
1CE0
0EE0
1CE0
78E0
38E0
3FE0
1FE0
06E0
00E0
ENDCHAR
STARTCHAR 0930
ENCODING 2352
SWIDTH 420 0
DWIDTH 7 0
BBX 9 11 -1 0
BITMAP
FF80
FF80
0600
0700
0700
7E00
7C00
3800
1C00
1F00
0E00
ENDCHAR
STARTCHAR 0931
ENCODING 2353
SWIDTH 420 0
DWIDTH 7 0
BBX 9 13 -1 -2
BITMAP
FF80
FF80
0600
0700
0700
7E00
7C00
3800
1C00
1F00
6E00
6000
6000
ENDCHAR
STARTCHAR 0932
ENCODING 2354
SWIDTH 780 0
DWIDTH 13 0
BBX 15 11 -1 0
BITMAP
FFFE
FFFE
0038
0C78
3FF8
3FF8
3BB8
33B8
3838
3E38
1C38
ENDCHAR
STARTCHAR 0933
ENCODING 2355
SWIDTH 840 0
DWIDTH 14 0
BBX 15 11 -1 0
BITMAP
FFFE
FFFE
0070
0C70
3FF8
3FFC
319C
339C
3B9C
3FF8
1E70
ENDCHAR
STARTCHAR 0934
ENCODING 2356
SWIDTH 840 0
DWIDTH 14 0
BBX 15 14 -1 -3
BITMAP
FFFE
FFFE
0070
0C70
3FF8
3FFC
319C
339C
3B9C
3FF8
1E70
0180
0380
0180
ENDCHAR
STARTCHAR 0935
ENCODING 2357
SWIDTH 600 0
DWIDTH 10 0
BBX 12 11 -1 0
BITMAP
FFF0
FFF0
0DC0
3FC0
3FC0
71C0
31C0
3FC0
3FC0
0DC0
01C0
ENDCHAR
STARTCHAR 0936
ENCODING 2358
SWIDTH 780 0
DWIDTH 13 0
BBX 13 11 1 0
BITMAP
79F8
FFF8
EEE0
EEE0
6EE0
3EE0
FCE0
F8E0
70E0
3CE0
1CE0
ENDCHAR
STARTCHAR 0937
ENCODING 2359
SWIDTH 600 0
DWIDTH 10 0
BBX 12 11 -1 0
BITMAP
FFF0
FFF0
39C0
3FC0
3BC0
39C0
3FC0
1FC0
05C0
01C0
01C0
ENDCHAR
STARTCHAR 0938
ENCODING 2360
SWIDTH 720 0
DWIDTH 12 0
BBX 14 11 -1 0
BITMAP
FFFC
FFFC
0E70
0670
0E70
7FF0
7FF0
38F0
1C70
1F70
0E30
ENDCHAR
STARTCHAR 0939
ENCODING 2361
SWIDTH 540 0
DWIDTH 9 0
BBX 11 13 -1 -2
BITMAP
FFE0
FFE0
0F80
3F80
3F80
3800
3E00
3F80
3FC0
3180
3F00
1F00
0600
ENDCHAR
STARTCHAR 093A
ENCODING 2362
SWIDTH 0 0
DWIDTH 0 0
BBX 3 5 -4 10
BITMAP
E0
E0
E0
E0
E0
ENDCHAR
STARTCHAR 093B
ENCODING 2363
SWIDTH 300 0
DWIDTH 5 0
BBX 7 15 -1 0
BITMAP
38
38
38
38
FE
FE
38
38
38
38
38
38
38
38
38
ENDCHAR
STARTCHAR 093C
ENCODING 2364
SWIDTH 0 0
DWIDTH 0 0
BBX 2 3 -8 -3
BITMAP
C0
C0
C0
ENDCHAR
STARTCHAR 093D
ENCODING 2365
SWIDTH 540 0
DWIDTH 9 0
BBX 8 11 1 0
BITMAP
7E
FE
E0
E0
F8
7C
1E
07
CF
FE
7C
ENDCHAR
STARTCHAR 093E
ENCODING 2366
SWIDTH 300 0
DWIDTH 5 0
BBX 7 11 -1 0
BITMAP
FE
FE
38
38
38
38
38
38
38
38
38
ENDCHAR
STARTCHAR 093F
ENCODING 2367
SWIDTH 300 0
DWIDTH 5 0
BBX 14 16 -1 0
BITMAP
0FC0
1FF8
387C
380C
3800
FE00
FE00
3800
3800
3800
3800
3800
3800
3800
3800
3800
ENDCHAR
STARTCHAR 0940
ENCODING 2368
SWIDTH 300 0
DWIDTH 5 0
BBX 10 16 -4 0
BITMAP
7C00
FE00
E700
E700
0700
1FC0
1FC0
0700
0700
0700
0700
0700
0700
0700
0700
0700
ENDCHAR
STARTCHAR 0941
ENCODING 2369
SWIDTH 0 0
DWIDTH 0 0
BBX 9 7 -8 -6
BITMAP
0C00
1F00
1F80
6380
FF80
7F00
0C00
ENDCHAR
STARTCHAR 0942
ENCODING 2370
SWIDTH 0 0
DWIDTH 0 0
BBX 8 7 -6 -6
BITMAP
30
FC
FE
E7
F7
F3
22
ENDCHAR
STARTCHAR 0943
ENCODING 2371
SWIDTH 0 0
DWIDTH 0 0
BBX 6 7 -6 -6
BITMAP
38
F8
F8
C0
FC
FC
10
ENDCHAR
STARTCHAR 0944
ENCODING 2372
SWIDTH 0 0
DWIDTH 0 0
BBX 5 9 -5 -7
BITMAP
30
F0
F0
F8
F8
F0
F8
F8
20
ENDCHAR
STARTCHAR 0945
ENCODING 2373
SWIDTH 0 0
DWIDTH 0 0
BBX 7 4 -6 12
BITMAP
44
FE
7C
38
ENDCHAR
STARTCHAR 0946
ENCODING 2374
SWIDTH 0 0
DWIDTH 0 0
BBX 8 5 -9 11
BITMAP
60
F8
7E
0F
07
ENDCHAR
STARTCHAR 0947
ENCODING 2375
SWIDTH 0 0
DWIDTH 0 0
BBX 7 5 -8 11
BITMAP
60
F8
78
1C
0E
ENDCHAR
STARTCHAR 0948
ENCODING 2376
SWIDTH 0 0
DWIDTH 0 0
BBX 7 6 -8 10
BITMAP
1C
0C
EE
F6
1E
0E
ENDCHAR
STARTCHAR 0949
ENCODING 2377
SWIDTH 300 0
DWIDTH 5 0
BBX 9 16 -3 0
BITMAP
4400
FC00
FC00
3000
0000
3F80
3F80
0E00
0E00
0E00
0E00
0E00
0E00
0E00
0E00
0E00
ENDCHAR
STARTCHAR 094A
ENCODING 2378
SWIDTH 300 0
DWIDTH 5 0
BBX 10 16 -4 0
BITMAP
6000
FC00
7E00
0F00
0700
1FC0
1FC0
0700
0700
0700
0700
0700
0700
0700
0700
0700
ENDCHAR
STARTCHAR 094B
ENCODING 2379
SWIDTH 300 0
DWIDTH 5 0
BBX 8 16 -2 0
BITMAP
E0
F0
F0
38
18
7F
7F
1C
1C
1C
1C
1C
1C
1C
1C
1C
ENDCHAR
STARTCHAR 094C
ENCODING 2380
SWIDTH 300 0
DWIDTH 5 0
BBX 9 16 -3 0
BITMAP
1C00
1C00
EE00
F600
1E00
3F80
3F80
0E00
0E00
0E00
0E00
0E00
0E00
0E00
0E00
0E00
ENDCHAR
STARTCHAR 094D
ENCODING 2381
SWIDTH 0 0
DWIDTH 0 0
BBX 5 4 -5 -5
BITMAP
60
F0
78
18
ENDCHAR
STARTCHAR 094E
ENCODING 2382
SWIDTH 0 0
DWIDTH 0 0
BBX 5 11 -4 0
BITMAP
F8
F8
E0
E0
E0
E0
E0
E0
E0
E0
E0
ENDCHAR
STARTCHAR 094F
ENCODING 2383
SWIDTH 300 0
DWIDTH 5 0
BBX 10 17 -4 0
BITMAP
3800
1E00
2F00
FB80
FF80
3F00
1FC0
1FC0
0700
0700
0700
0700
0700
0700
0700
0700
0700
ENDCHAR
STARTCHAR 0950
ENCODING 2384
SWIDTH 960 0
DWIDTH 16 0
BBX 15 15 0 0
BITMAP
0040
0060
0148
01F8
3DF8
7E60
4E7C
06FE
3EEE
3DC6
3F8E
073E
7F7C
FE30
1800
ENDCHAR
STARTCHAR 0951
ENCODING 2385
SWIDTH 0 0
DWIDTH 0 0
BBX 3 5 -4 12
BITMAP
E0
E0
E0
E0
E0
ENDCHAR
STARTCHAR 0952
ENCODING 2386
SWIDTH 0 0
DWIDTH 0 0
BBX 8 2 -9 -4
BITMAP
FF
7F
ENDCHAR
STARTCHAR 0953
ENCODING 2387
SWIDTH 0 0
DWIDTH 0 0
BBX 5 4 -6 12
BITMAP
C0
E0
78
30
ENDCHAR
STARTCHAR 0954
ENCODING 2388
SWIDTH 0 0
DWIDTH 0 0
BBX 5 4 -4 12
BITMAP
30
78
F0
40
ENDCHAR
STARTCHAR 0955
ENCODING 2389
SWIDTH 0 0
DWIDTH 0 0
BBX 5 6 -5 12
BITMAP
88
F8
F8
60
F8
F8
ENDCHAR
STARTCHAR 0956
ENCODING 2390
SWIDTH 0 0
DWIDTH 0 0
BBX 7 3 -6 -4
BITMAP
FE
FE
38
ENDCHAR
STARTCHAR 0957
ENCODING 2391
SWIDTH 0 0
DWIDTH 0 0
BBX 7 6 -6 -7
BITMAP
FE
FE
38
FE
FE
38
ENDCHAR
STARTCHAR 0958
ENCODING 2392
SWIDTH 840 0
DWIDTH 14 0
BBX 16 13 -1 -2
BITMAP
FFFF
FFFF
01C0
09F0
3DFC
3DFE
71CE
3FDE
3FFC
0DD8
31C0
7000
7000
ENDCHAR
STARTCHAR 0959
ENCODING 2393
SWIDTH 900 0
DWIDTH 15 0
BBX 16 13 -1 -2
BITMAP
FFFF
FFFF
0C4E
0EEE
1FEE
7DCE
7DFE
38FE
1E2E
0F0E
670E
7000
6000
ENDCHAR
STARTCHAR 095A
ENCODING 2394
SWIDTH 660 0
DWIDTH 11 0
BBX 12 13 -1 -2
BITMAP
FFF0
FFF0
1CC0
1CC0
1CC0
1CC0
7CC0
78C0
30C0
00C0
18C0
3800
1800
ENDCHAR
STARTCHAR 095B
ENCODING 2395
SWIDTH 780 0
DWIDTH 13 0
BBX 14 14 -1 -3
BITMAP
FFFC
FFFC
0038
1FF8
1FF8
1FF8
0338
23B8
7FB8
3F38
0C38
1800
1C00
1800
ENDCHAR
STARTCHAR 095C
ENCODING 2396
SWIDTH 540 0
DWIDTH 9 0
BBX 11 15 -1 -4
BITMAP
FFE0
FFE0
0F80
3F80
3F80
3B00
3F80
1FC0
21C0
7FC0
1F00
0000
0600
0E00
0600
ENDCHAR
STARTCHAR 095D
ENCODING 2397
SWIDTH 600 0
DWIDTH 10 0
BBX 12 15 -1 -4
BITMAP
FFF0
FFF0
01C0
07C0
3FC0
3F80
3180
37C0
3FE0
3FC0
0F80
0000
0600
0700
0600
ENDCHAR
STARTCHAR 095E
ENCODING 2398
SWIDTH 900 0
DWIDTH 15 0
BBX 16 12 -1 -1
BITMAP
FFFF
FFFF
39C0
39D0
39FC
39FE
3FCE
1FCE
05DE
19DC
39D8
1800
ENDCHAR
STARTCHAR 095F
ENCODING 2399
SWIDTH 660 0
DWIDTH 11 0
BBX 13 13 -1 -2
BITMAP
FFF8
FFF8
1CE0
0EE0
1CE0
78E0
38E0
3FE0
1FE0
06E0
30E0
3800
3000
ENDCHAR
STARTCHAR 0960
ENCODING 2400
SWIDTH 840 0
DWIDTH 14 0
BBX 16 11 -1 0
BITMAP
FFFF
FFFF
0180
399C
3FBC
3FFC
03FE
0F9E
3F98
399F
019E
ENDCHAR
STARTCHAR 0961
ENCODING 2401
SWIDTH 780 0
DWIDTH 13 0
BBX 15 17 -1 -6
BITMAP
FFFE
FFFE
0070
0C70
3FF8
3FFC
3B9C
33BC
3878
3EE0
1CFC
007C
0078
00E0
00E4
007C
0038
ENDCHAR
STARTCHAR 0962
ENCODING 2402
SWIDTH 0 0
DWIDTH 0 0
BBX 9 8 -9 -8
BITMAP
7F80
7F80
ED80
6B80
7700
3780
0380
0100
ENDCHAR
STARTCHAR 0963
ENCODING 2403
SWIDTH 0 0
DWIDTH 0 0
BBX 9 10 -9 -10
BITMAP
7F80
7F80
ED80
6300
7700
0780
0700
0780
0380
0100
ENDCHAR
STARTCHAR 0964
ENCODING 2404
SWIDTH 360 0
DWIDTH 6 0
BBX 3 11 1 0
BITMAP
E0
E0
E0
E0
E0
E0
E0
E0
E0
E0
60
ENDCHAR
STARTCHAR 0965
ENCODING 2405
SWIDTH 660 0
DWIDTH 11 0
BBX 8 11 1 0
BITMAP
E7
E7
E7
E7
E7
E7
E7
E7
E7
E7
67
ENDCHAR
STARTCHAR 0966
ENCODING 2406
SWIDTH 540 0
DWIDTH 9 0
BBX 8 9 0 1
BITMAP
08
7E
7F
E7
E3
E7
7F
7E
18
ENDCHAR
STARTCHAR 0967
ENCODING 2407
SWIDTH 540 0
DWIDTH 9 0
BBX 7 11 0 0
BITMAP
3C
7E
EE
E6
7E
7E
16
06
06
06
06
ENDCHAR
STARTCHAR 0968
ENCODING 2408
SWIDTH 540 0
DWIDTH 9 0
BBX 8 11 0 0
BITMAP
3C
7E
47
07
07
7F
FE
7C
18
1C
0E
ENDCHAR
STARTCHAR 0969
ENCODING 2409
SWIDTH 540 0
DWIDTH 9 0
BBX 8 14 0 -3
BITMAP
7C
7E
47
07
3E
3E
3F
07
47
FE
7C
38
1C
1C
ENDCHAR
STARTCHAR 096A
ENCODING 2410
SWIDTH 540 0
DWIDTH 9 0
BBX 9 11 0 0
BITMAP
7300
E380
E380
7380
7F00
3E00
3F00
7700
7700
7F00
3E00
ENDCHAR
STARTCHAR 096B
ENCODING 2411
SWIDTH 540 0
DWIDTH 9 0
BBX 9 11 0 0
BITMAP
3000
7800
7300
E780
E380
7F80
7F00
0F80
0380
0700
0F00
ENDCHAR
STARTCHAR 096C
ENCODING 2412
SWIDTH 540 0
DWIDTH 9 0
BBX 7 13 1 -2
BITMAP
7C
FE
E4
E0
FC
7C
FC
C0
FE
FE
1C
0C
0E
ENDCHAR
STARTCHAR 096D
ENCODING 2413
SWIDTH 660 0
DWIDTH 11 0
BBX 10 11 1 0
BITMAP
7000
E000
E200
EF80
CFC0
DDC0
CFC0
E780
E380
7F00
3E00
ENDCHAR
STARTCHAR 096E
ENCODING 2414
SWIDTH 480 0
DWIDTH 8 0
BBX 7 11 1 0
BITMAP
1C
1C
38
70
F0
E0
E0
C0
E2
FE
7C
ENDCHAR
STARTCHAR 096F
ENCODING 2415
SWIDTH 480 0
DWIDTH 8 0
BBX 8 11 0 0
BITMAP
3C
7E
67
E7
7F
7E
3C
1E
0E
07
06
ENDCHAR
STARTCHAR 0970
ENCODING 2416
SWIDTH 420 0
DWIDTH 7 0
BBX 7 8 0 2
BITMAP
10
7C
7E
EE
EE
7E
7C
10
ENDCHAR
STARTCHAR 0971
ENCODING 2417
SWIDTH 300 0
DWIDTH 5 0
BBX 3 3 1 8
BITMAP
E0
E0
40
ENDCHAR
STARTCHAR 0972
ENCODING 2418
SWIDTH 780 0
DWIDTH 13 0
BBX 14 16 0 0
BITMAP
0088
00FC
00FC
0030
0000
3CFC
7EFC
4F70
0670
3E70
3FF0
3FF0
0770
FF70
7E70
1830
ENDCHAR
STARTCHAR 0973
ENCODING 2419
SWIDTH 780 0
DWIDTH 13 0
BBX 14 15 0 0
BITMAP
0070
0070
0070
0070
7CFC
7EFC
0770
3E70
3FF0
3FF0
0670
4770
FF70
7E70
1830
ENDCHAR
STARTCHAR 0974
ENCODING 2420
SWIDTH 1080 0
DWIDTH 18 0
BBX 19 15 0 0
BITMAP
000380
000380
000380
000380
7CFFE0
7EFFE0
077380
3E7380
3FF380
3FF380
067380
477380
FF7380
7E7380
183180
ENDCHAR
STARTCHAR 0975
ENCODING 2421
SWIDTH 1080 0
DWIDTH 18 0
BBX 19 17 0 0
BITMAP
000C00
000F80
0017C0
007CC0
003FC0
000FC0
7CFFE0
7EFFE0
0F7380
067380
3E7380
3FF380
3FF380
477380
FF7380
7E7380
183180
ENDCHAR
STARTCHAR 0976
ENCODING 2422
SWIDTH 780 0
DWIDTH 13 0
BBX 14 15 0 -4
BITMAP
3CFC
7EFC
4F70
0670
3E70
3FF0
3FF0
0770
FF70
7E70
1830
0000
0FC0
0FC0
0300
ENDCHAR
STARTCHAR 0977
ENCODING 2423
SWIDTH 780 0
DWIDTH 13 0
BBX 14 17 0 -6
BITMAP
3CFC
7EFC
4F70
0670
3E70
3FF0
3FF0
0770
FF70
7E70
1830
0000
0FC0
0FC0
0B40
0FC0
0FC0
ENDCHAR
STARTCHAR 0979
ENCODING 2425
SWIDTH 780 0
DWIDTH 13 0
BBX 14 16 -1 -5
BITMAP
FFFC
FFFC
0038
1FF8
1FF8
1FF8
0338
23B8
7FB8
3F38
0C38
2200
3700
2A00
0C00
0800
ENDCHAR
STARTCHAR 097A
ENCODING 2426
SWIDTH 660 0
DWIDTH 11 0
BBX 13 11 -1 0
BITMAP
FFF8
FFF8
1CE0
0EE0
1EE0
79E0
38E0
3FE0
1FE0
06E0
00E0
ENDCHAR
STARTCHAR 097B
ENCODING 2427
SWIDTH 660 0
DWIDTH 11 0
BBX 12 11 -1 0
BITMAP
FFF0
FFF0
1CC0
1CC0
1CC0
1CC0
7CC0
78C0
30C0
7FC0
7FC0
ENDCHAR
STARTCHAR 097C
ENCODING 2428
SWIDTH 780 0
DWIDTH 13 0
BBX 14 13 -1 -2
BITMAP
FFFC
FFFC
0038
1FF8
1FF8
1FF8
2338
7F38
3F38
0C38
7FF8
7FF8
3FF0
ENDCHAR
STARTCHAR 097D
ENCODING 2429
SWIDTH 540 0
DWIDTH 9 0
BBX 7 11 1 0
BITMAP
7C
FE
FE
0E
0E
7E
7C
70
70
70
30
ENDCHAR
STARTCHAR 097E
ENCODING 2430
SWIDTH 540 0
DWIDTH 9 0
BBX 11 15 -1 -4
BITMAP
FFE0
FFE0
0F80
3F80
3F80
3B00
3F80
1FC0
21C0
7FC0
1F00
0000
3F80
3F80
3F80
ENDCHAR
STARTCHAR 097F
ENCODING 2431
SWIDTH 600 0
DWIDTH 10 0
BBX 12 13 -1 -2
BITMAP
FFF0
FFF0
0CC0
3EC0
3EC0
3CC0
76C0
3DC0
1FC0
06C0
7FC0
7FC0
3FC0
ENDCHAR
STARTCHAR 1E0C
ENCODING 7692
SWIDTH 660 0
DWIDTH 11 0
BBX 10 15 1 -4
BITMAP
FE00
FF00
E780
E380
E3C0
E1C0
E3C0
E380
E780
FF00
7E00
0000
1800
1C00
1800
ENDCHAR
STARTCHAR 1E0D
ENCODING 7693
SWIDTH 600 0
DWIDTH 10 0
BBX 8 16 1 -4
BITMAP
07
07
07
3F
FF
F7
E7
C7
E7
F7
FF
3E
00
1C
1C
1C
ENDCHAR
STARTCHAR 1E0E
ENCODING 7694
SWIDTH 660 0
DWIDTH 11 0
BBX 10 14 1 -3
BITMAP
FE00
FF00
E780
E380
E3C0
E1C0
E3C0
E380
E780
FF00
7E00
0000
7E00
7E00
ENDCHAR
STARTCHAR 1E0F
ENCODING 7695
SWIDTH 600 0
DWIDTH 10 0
BBX 8 15 1 -3
BITMAP
07
07
07
3F
FF
F7
E7
C7
E7
F7
FF
3E
00
3E
7E
ENDCHAR
STARTCHAR 1E20
ENCODING 7712
SWIDTH 660 0
DWIDTH 11 0
BBX 9 15 1 0
BITMAP
3F00
3F00
0000
0000
1F00
7F80
F980
E000
E780
EF80
E180
E180
FB80
7F80
1F00
ENDCHAR
STARTCHAR 1E21
ENCODING 7713
SWIDTH 600 0
DWIDTH 10 0
BBX 8 16 1 -3
BITMAP
7E
7E
00
00
3C
FF
E7
C7
C7
E7
FF
7F
07
CF
FE
7C
ENDCHAR
STARTCHAR 1E24
ENCODING 7716
SWIDTH 660 0
DWIDTH 11 0
BBX 9 15 1 -4
BITMAP
E380
E380
E380
E380
FF80
FF80
E380
E380
E380
E180
E180
0000
0C00
0E00
0C00
ENDCHAR
STARTCHAR 1E25
ENCODING 7717
SWIDTH 600 0
DWIDTH 10 0
BBX 8 16 1 -4
BITMAP
E0
E0
E0
FE
FF
E7
E7
E7
E7
E7
E7
E7
00
18
1C
18
ENDCHAR
STARTCHAR 1E2A
ENCODING 7722
SWIDTH 660 0
DWIDTH 11 0
BBX 9 15 1 -4
BITMAP
E380
E380
E380
E380
FF80
FF80
E380
E380
E380
E180
E180
0000
3300
3F00
1E00
ENDCHAR
STARTCHAR 1E2B
ENCODING 7723
SWIDTH 600 0
DWIDTH 10 0
BBX 8 16 1 -4
BITMAP
E0
E0
E0
FE
FF
E7
E7
E7
E7
E7
E7
E7
00
26
7E
3C
ENDCHAR
STARTCHAR 1E36
ENCODING 7734
SWIDTH 540 0
DWIDTH 9 0
BBX 7 15 1 -4
BITMAP
E0
E0
E0
E0
E0
E0
E0
E0
FE
FE
FE
00
18
38
18
ENDCHAR
STARTCHAR 1E37
ENCODING 7735
SWIDTH 300 0
DWIDTH 5 0
BBX 3 16 1 -4
BITMAP
E0
E0
E0
E0
E0
E0
E0
E0
E0
E0
E0
E0
00
E0
E0
E0
ENDCHAR
STARTCHAR 1E38
ENCODING 7736
SWIDTH 540 0
DWIDTH 9 0
BBX 8 19 0 -4
BITMAP
FC
FC
00
00
70
70
70
70
70
70
70
70
7F
7F
7F
00
1C
1C
1C
ENDCHAR
STARTCHAR 1E39
ENCODING 7737
SWIDTH 300 0
DWIDTH 5 0
BBX 6 19 -1 -4
BITMAP
FC
FC
00
38
38
38
38
38
38
38
38
38
38
38
38
00
38
38
38
ENDCHAR
STARTCHAR 1E3A
ENCODING 7738
SWIDTH 540 0
DWIDTH 9 0
BBX 7 15 1 -4
BITMAP
E0
E0
E0
E0
E0
E0
E0
E0
FE
FE
FE
00
00
7C
7C
ENDCHAR
STARTCHAR 1E3B
ENCODING 7739
SWIDTH 300 0
DWIDTH 5 0
BBX 6 16 0 -4
BITMAP
70
70
70
70
70
70
70
70
70
70
70
70
00
00
FC
F8
ENDCHAR
STARTCHAR 1E42
ENCODING 7746
SWIDTH 840 0
DWIDTH 14 0
BBX 12 15 1 -4
BITMAP
71E0
F1E0
F9E0
FBE0
FB60
EF60
EF60
EE70
E670
E070
E070
0000
0600
0E00
0600
ENDCHAR
STARTCHAR 1E43
ENCODING 7747
SWIDTH 840 0
DWIDTH 14 0
BBX 13 13 1 -4
BITMAP
7DE0
FFF0
EF70
E738
E738
E738
E738
E738
E738
0000
0600
0700
0600
ENDCHAR
STARTCHAR 1E44
ENCODING 7748
SWIDTH 660 0
DWIDTH 11 0
BBX 9 15 1 0
BITMAP
1C00
1C00
1C00
0000
E380
F380
FB80
FB80
FB80
FF80
ED80
EF80
E780
E780
E380
ENDCHAR
STARTCHAR 1E45
ENCODING 7749
SWIDTH 600 0
DWIDTH 10 0
BBX 8 13 1 0
BITMAP
18
38
18
00
7C
FF
E7
E7
E7
E7
E7
E7
E7
ENDCHAR
STARTCHAR 1E46
ENCODING 7750
SWIDTH 660 0
DWIDTH 11 0
BBX 9 15 1 -4
BITMAP
E380
F380
FB80
FB80
FB80
FF80
ED80
EF80
E780
E780
E380
0000
0C00
1C00
0C00
ENDCHAR
STARTCHAR 1E47
ENCODING 7751
SWIDTH 600 0
DWIDTH 10 0
BBX 8 13 1 -4
BITMAP
7C
FF
E7
E7
E7
E7
E7
E7
E7
00
18
1C
18
ENDCHAR
STARTCHAR 1E48
ENCODING 7752
SWIDTH 660 0
DWIDTH 11 0
BBX 9 15 1 -4
BITMAP
E380
F380
FB80
FB80
FB80
FF80
ED80
EF80
E780
E780
E380
0000
0000
3F00
3F00
ENDCHAR
STARTCHAR 1E49
ENCODING 7753
SWIDTH 600 0
DWIDTH 10 0
BBX 8 13 1 -4
BITMAP
7C
FF
E7
E7
E7
E7
E7
E7
E7
00
00
7E
7E
ENDCHAR
STARTCHAR 1E5A
ENCODING 7770
SWIDTH 600 0
DWIDTH 10 0
BBX 9 15 1 -4
BITMAP
7C00
FF00
E700
E700
E700
FF00
FE00
EE00
E700
E780
E300
0000
1800
1C00
1800
ENDCHAR
STARTCHAR 1E5B
ENCODING 7771
SWIDTH 420 0
DWIDTH 7 0
BBX 6 13 1 -4
BITMAP
78
FC
F0
E0
E0
E0
E0
E0
E0
00
30
70
30
ENDCHAR
STARTCHAR 1E5C
ENCODING 7772
SWIDTH 600 0
DWIDTH 10 0
BBX 9 19 1 -4
BITMAP
7E00
7E00
0000
0000
7C00
FF00
E700
E700
E700
FF00
FE00
EE00
E700
E780
E300
0000
1800
1C00
1800
ENDCHAR
STARTCHAR 1E5D
ENCODING 7773
SWIDTH 420 0
DWIDTH 7 0
BBX 6 16 1 -4
BITMAP
FC
FC
00
3C
FC
F0
E0
E0
E0
E0
E0
E0
00
30
70
30
ENDCHAR
STARTCHAR 1E5E
ENCODING 7774
SWIDTH 600 0
DWIDTH 10 0
BBX 9 15 1 -4
BITMAP
7C00
FF00
E700
E700
E700
FF00
FE00
EE00
E700
E780
E300
0000
0000
7E00
7E00
ENDCHAR
STARTCHAR 1E5F
ENCODING 7775
SWIDTH 420 0
DWIDTH 7 0
BBX 6 13 1 -4
BITMAP
3C
FC
F0
E0
E0
E0
E0
E0
E0
00
00
FC
FC
ENDCHAR
STARTCHAR 1E60
ENCODING 7776
SWIDTH 540 0
DWIDTH 9 0
BBX 8 15 1 0
BITMAP
18
38
18
00
7E
FE
E6
E0
F8
7E
1F
07
CF
FE
7C
ENDCHAR
STARTCHAR 1E61
ENCODING 7777
SWIDTH 480 0
DWIDTH 8 0
BBX 7 13 1 0
BITMAP
30
38
30
00
7C
FC
E4
F0
FC
1E
CE
FE
7C
ENDCHAR
STARTCHAR 1E62
ENCODING 7778
SWIDTH 540 0
DWIDTH 9 0
BBX 8 15 1 -4
BITMAP
7E
FE
E6
E0
F8
7E
1F
07
CF
FE
7C
00
18
38
18
ENDCHAR
STARTCHAR 1E63
ENCODING 7779
SWIDTH 480 0
DWIDTH 8 0
BBX 7 13 1 -4
BITMAP
7C
FC
E4
F0
FC
1E
CE
FE
7C
00
38
38
38
ENDCHAR
STARTCHAR 1E6C
ENCODING 7788
SWIDTH 540 0
DWIDTH 9 0
BBX 9 15 0 -4
BITMAP
FF80
FF80
1C00
1C00
1C00
1C00
1C00
1C00
1C00
1C00
1C00
0000
0C00
1C00
0C00
ENDCHAR
STARTCHAR 1E6D
ENCODING 7789
SWIDTH 420 0
DWIDTH 7 0
BBX 5 15 1 -4
BITMAP
E0
E0
E0
F8
F8
E0
E0
E0
E8
F8
78
00
70
70
70
ENDCHAR
STARTCHAR 1E6E
ENCODING 7790
SWIDTH 540 0
DWIDTH 9 0
BBX 9 15 0 -4
BITMAP
FF80
FF80
1C00
1C00
1C00
1C00
1C00
1C00
1C00
1C00
1C00
0000
0000
3F00
3F00
ENDCHAR
STARTCHAR 1E6F
ENCODING 7791
SWIDTH 420 0
DWIDTH 7 0
BBX 6 14 1 -3
BITMAP
E0
E0
E0
F8
F8
E0
E0
E0
E8
F8
78
00
FC
FC
ENDCHAR
STARTCHAR 1E80
ENCODING 7808
SWIDTH 900 0
DWIDTH 15 0
BBX 13 15 1 0
BITMAP
1C00
1F00
0700
0000
C038
E038
E738
E738
E738
EFB8
EDB8
7DB0
7DF0
7DF0
38E0
ENDCHAR
STARTCHAR 1E81
ENCODING 7809
SWIDTH 840 0
DWIDTH 14 0
BBX 13 14 0 0
BITMAP
0C00
0E00
0F00
0300
0000
E038
6738
67B8
77B8
7FB0
7DB0
3DF0
3CF0
3CE0
ENDCHAR
STARTCHAR 1E82
ENCODING 7810
SWIDTH 900 0
DWIDTH 15 0
BBX 13 15 1 0
BITMAP
0180
0780
0700
0000
C038
E038
E738
E738
E738
EFB8
EDB8
7DB0
7DF0
7DF0
38E0
ENDCHAR
STARTCHAR 1E83
ENCODING 7811
SWIDTH 840 0
DWIDTH 14 0
BBX 13 13 0 0
BITMAP
01C0
03C0
0780
0000
E038
6738
67B8
77B8
7FB0
7DB0
3DF0
3CF0
3CE0
ENDCHAR
STARTCHAR 1E84
ENCODING 7812
SWIDTH 900 0
DWIDTH 15 0
BBX 13 15 1 0
BITMAP
1D80
1DC0
1D80
0000
C038
E038
E738
E738
E738
EFB8
EDB8
7DB0
7DF0
7DF0
38E0
ENDCHAR
STARTCHAR 1E85
ENCODING 7813
SWIDTH 840 0
DWIDTH 14 0
BBX 13 13 0 0
BITMAP
0DC0
1DC0
0DC0
0000
E038
6738
67B8
77B8
7FB0
7DB0
3DF0
3CF0
3CE0
ENDCHAR
STARTCHAR 1E8E
ENCODING 7822
SWIDTH 600 0
DWIDTH 10 0
BBX 9 15 0 0
BITMAP
0C00
1C00
0C00
0000
E180
F380
7380
7F80
3F00
1F00
1E00
0E00
0E00
0E00
0E00
ENDCHAR
STARTCHAR 1E8F
ENCODING 7823
SWIDTH 540 0
DWIDTH 9 0
BBX 9 16 0 -3
BITMAP
1C00
1C00
1C00
0000
E380
6380
7380
7380
7700
3F00
3F00
1E00
1E00
3C00
7800
3800
ENDCHAR
STARTCHAR 1E92
ENCODING 7826
SWIDTH 600 0
DWIDTH 10 0
BBX 8 15 1 0
BITMAP
18
38
18
00
FF
FF
0F
1E
1C
3C
78
F0
E0
FF
FF
ENDCHAR
STARTCHAR 1E93
ENCODING 7827
SWIDTH 480 0
DWIDTH 8 0
BBX 7 13 1 0
BITMAP
30
38
30
00
FC
FE
1C
3C
78
70
E0
FE
FE
ENDCHAR
STARTCHAR 1E97
ENCODING 7831
SWIDTH 420 0
DWIDTH 7 0
BBX 7 15 0 0
BITMAP
EC
EE
EC
00
70
70
70
7C
7C
70
70
70
74
7C
3C
ENDCHAR
STARTCHAR 1E9E
ENCODING 7838
SWIDTH 600 0
DWIDTH 10 0
BBX 9 12 1 0
BITMAP
3C00
7F00
F700
E300
EF00
EE00
EE00
EF80
E380
EB80
EF80
EF00
ENDCHAR
STARTCHAR 1EA0
ENCODING 7840
SWIDTH 660 0
DWIDTH 11 0
BBX 10 15 0 -4
BITMAP
1E00
1F00
1F00
3B00
3B80
3380
7F80
7FC0
71C0
F1C0
61C0
0000
0E00
0E00
0E00
ENDCHAR
STARTCHAR 1EA1
ENCODING 7841
SWIDTH 540 0
DWIDTH 9 0
BBX 8 13 0 -4
BITMAP
3E
7F
67
0F
7F
63
F7
7F
3E
00
1C
1C
1C
ENDCHAR
STARTCHAR 1EA2
ENCODING 7842
SWIDTH 660 0
DWIDTH 11 0
BBX 10 15 0 0
BITMAP
0E00
0A00
0E00
0400
1E00
1F00
1F00
3B00
3B80
3380
7F80
7FC0
71C0
F1C0
61C0
ENDCHAR
STARTCHAR 1EA3
ENCODING 7843
SWIDTH 540 0
DWIDTH 9 0
BBX 8 13 0 0
BITMAP
1C
14
0C
08
3E
7F
67
0F
7F
63
F7
7F
3E
ENDCHAR
STARTCHAR 1EA4
ENCODING 7844
SWIDTH 660 0
DWIDTH 11 0
BBX 11 18 0 0
BITMAP
0060
00E0
04C0
0E80
1F00
1B00
0000
1E00
1F00
1F00
3B00
3B80
3380
7F80
7FC0
71C0
F1C0
61C0
ENDCHAR
STARTCHAR 1EA5
ENCODING 7845
SWIDTH 540 0
DWIDTH 9 0
BBX 10 16 0 0
BITMAP
00C0
01C0
0980
1C00
3F00
3600
0000
3E00
7F00
6700
0F00
7F00
6300
F700
7F00
3E00
ENDCHAR
STARTCHAR 1EA6
ENCODING 7846
SWIDTH 660 0
DWIDTH 11 0
BBX 10 18 0 0
BITMAP
0180
01C0
04C0
0E00
1F00
1B00
0000
1E00
1F00
1F00
3B00
3B80
3380
7F80
7FC0
71C0
F1C0
61C0
ENDCHAR
STARTCHAR 1EA7
ENCODING 7847
SWIDTH 540 0
DWIDTH 9 0
BBX 9 16 0 0
BITMAP
0300
0380
0980
3C00
7E00
2600
0000
3E00
7F00
6700
0F00
7F00
6300
F700
7F00
3E00
ENDCHAR
STARTCHAR 1EA8
ENCODING 7848
SWIDTH 660 0
DWIDTH 11 0
BBX 11 18 0 0
BITMAP
01C0
0160
00C0
0E80
1F00
1B00
0000
1E00
1F00
1F00
3B00
3B80
3380
7F80
7FC0
71C0
F1C0
61C0
ENDCHAR
STARTCHAR 1EA9
ENCODING 7849
SWIDTH 540 0
DWIDTH 9 0
BBX 10 16 0 0
BITMAP
0180
02C0
0180
1D00
3E00
3700
0000
3E00
7F00
6700
0F00
7F00
6300
F700
7F00
3E00
ENDCHAR
STARTCHAR 1EAA
ENCODING 7850
SWIDTH 660 0
DWIDTH 11 0
BBX 10 18 0 0
BITMAP
1F00
1F00
0000
0E00
1F00
1B00
0000
1E00
1F00
1F00
3B00
3B80
3380
7F80
7FC0
71C0
F1C0
61C0
ENDCHAR
STARTCHAR 1EAB
ENCODING 7851
SWIDTH 540 0
DWIDTH 9 0
BBX 8 17 0 0
BITMAP
3A
3E
00
0C
3E
3F
36
00
3E
7F
67
07
7F
73
E3
7F
3E
ENDCHAR
STARTCHAR 1EAC
ENCODING 7852
SWIDTH 660 0
DWIDTH 11 0
BBX 10 20 0 -4
BITMAP
0400
0E00
1F00
1B00
0000
1E00
1F00
1F00
3B00
3B80
3380
7F80
7FC0
71C0
F1C0
61C0
0000
0E00
0E00
0E00
ENDCHAR
STARTCHAR 1EAD
ENCODING 7853
SWIDTH 540 0
DWIDTH 9 0
BBX 8 18 0 -4
BITMAP
08
1C
3F
36
00
3E
7F
67
0F
7F
63
F7
7F
3E
00
1C
1C
1C
ENDCHAR
STARTCHAR 1EAE
ENCODING 7854
SWIDTH 660 0
DWIDTH 11 0
BBX 10 19 0 0
BITMAP
0200
0700
0E00
0400
1B00
3F00
1E00
0000
1E00
1F00
1F00
3B00
3B80
3380
7F80
7FC0
71C0
F1C0
61C0
ENDCHAR
STARTCHAR 1EAF
ENCODING 7855
SWIDTH 540 0
DWIDTH 9 0
BBX 8 17 0 0
BITMAP
04
0E
0E
0C
32
3F
3E
00
3E
7F
67
0F
7F
63
F7
7F
3E
ENDCHAR
STARTCHAR 1EB0
ENCODING 7856
SWIDTH 660 0
DWIDTH 11 0
BBX 10 19 0 0
BITMAP
0800
1C00
0E00
0C00
1B00
3F00
1E00
0000
1E00
1F00
1F00
3B00
3B80
3380
7F80
7FC0
71C0
F1C0
61C0
ENDCHAR
STARTCHAR 1EB1
ENCODING 7857
SWIDTH 540 0
DWIDTH 9 0
BBX 8 17 0 0
BITMAP
10
38
1C
1A
32
3F
3E
00
3E
7F
67
0F
7F
63
F7
7F
3E
ENDCHAR
STARTCHAR 1EB2
ENCODING 7858
SWIDTH 660 0
DWIDTH 11 0
BBX 10 19 0 0
BITMAP
0E00
0A00
0600
0C00
1B00
3F00
1E00
0000
1E00
1F00
1F00
3B00
3B80
3380
7F80
7FC0
71C0
F1C0
61C0
ENDCHAR
STARTCHAR 1EB3
ENCODING 7859
SWIDTH 540 0
DWIDTH 9 0
BBX 8 17 0 0
BITMAP
1C
16
0C
08
32
3F
3E
00
3E
7F
67
0F
7F
63
F7
7F
3E
ENDCHAR
STARTCHAR 1EB4
ENCODING 7860
SWIDTH 660 0
DWIDTH 11 0
BBX 10 18 0 0
BITMAP
3F00
1F00
0000
1B00
3F00
1E00
0000
1E00
1F00
1F00
3B00
3B80
3380
7F80
7FC0
71C0
F1C0
61C0
ENDCHAR
STARTCHAR 1EB5
ENCODING 7861
SWIDTH 540 0
DWIDTH 9 0
BBX 8 17 0 0
BITMAP
3A
3E
00
00
32
3F
3E
00
3E
7F
67
0F
7F
63
F7
7F
3E
ENDCHAR
STARTCHAR 1EB6
ENCODING 7862
SWIDTH 660 0
DWIDTH 11 0
BBX 10 19 0 -4
BITMAP
1B00
3F00
1E00
0000
1E00
1F00
1F00
3B00
3B80
3380
7F80
7FC0
71C0
F1C0
61C0
0000
0E00
0E00
0E00
ENDCHAR
STARTCHAR 1EB7
ENCODING 7863
SWIDTH 540 0
DWIDTH 9 0
BBX 8 17 0 -4
BITMAP
32
3F
3E
00
3E
7F
67
0F
7F
63
F7
7F
3E
00
1C
1C
1C
ENDCHAR
STARTCHAR 1EB8
ENCODING 7864
SWIDTH 540 0
DWIDTH 9 0
BBX 8 15 1 -4
BITMAP
FE
FE
E0
E0
FE
FE
E0
E0
E0
FF
FE
00
18
38
18
ENDCHAR
STARTCHAR 1EB9
ENCODING 7865
SWIDTH 540 0
DWIDTH 9 0
BBX 8 13 1 -4
BITMAP
3C
FE
EF
CF
FF
E0
F2
7E
3E
00
18
38
18
ENDCHAR
STARTCHAR 1EBA
ENCODING 7866
SWIDTH 540 0
DWIDTH 9 0
BBX 8 16 1 0
BITMAP
18
2C
18
10
00
FE
FE
E0
E0
FE
FE
E0
E0
E0
FF
FE
ENDCHAR
STARTCHAR 1EBB
ENCODING 7867
SWIDTH 540 0
DWIDTH 9 0
BBX 8 14 1 0
BITMAP
38
28
18
10
00
3C
FE
EF
CF
FF
E0
F2
7E
3E
ENDCHAR
STARTCHAR 1EBC
ENCODING 7868
SWIDTH 540 0
DWIDTH 9 0
BBX 8 15 1 0
BITMAP
7C
FE
00
00
FE
FE
E0
E0
FE
FE
E0
E0
E0
FF
FE
ENDCHAR
STARTCHAR 1EBD
ENCODING 7869
SWIDTH 540 0
DWIDTH 9 0
BBX 8 13 1 0
BITMAP
7C
FE
00
00
3C
FE
EF
CF
FF
E0
F2
7E
3E
ENDCHAR
STARTCHAR 1EBE
ENCODING 7870
SWIDTH 540 0
DWIDTH 9 0
BBX 9 18 1 0
BITMAP
0180
0380
1300
3900
7E00
6C00
0000
FF00
FF00
E000
E000
FE00
FE00
E000
E000
E000
FF00
FF00
ENDCHAR
STARTCHAR 1EBF
ENCODING 7871
SWIDTH 540 0
DWIDTH 9 0
BBX 8 16 1 0
BITMAP
03
03
17
38
7E
6C
00
3C
FE
EF
CF
FF
E0
F2
7E
3E
ENDCHAR
STARTCHAR 1EC0
ENCODING 7872
SWIDTH 540 0
DWIDTH 9 0
BBX 9 18 1 0
BITMAP
0600
0700
1380
3800
7E00
6C00
0000
FF00
FF00
E000
E000
FE00
FE00
E000
E000
E000
FF00
FF00
ENDCHAR
STARTCHAR 1EC1
ENCODING 7873
SWIDTH 540 0
DWIDTH 9 0
BBX 8 16 1 0
BITMAP
04
0E
17
7C
7E
6C
00
3C
FE
EF
CF
FF
E0
F2
7E
3E
ENDCHAR
STARTCHAR 1EC2
ENCODING 7874
SWIDTH 540 0
DWIDTH 9 0
BBX 9 18 1 0
BITMAP
0300
0580
0300
3B00
7E00
6C00
0000
FF00
FF00
E000
E000
FE00
FE00
E000
E000
E000
FF00
FF00
ENDCHAR
STARTCHAR 1EC3
ENCODING 7875
SWIDTH 540 0
DWIDTH 9 0
BBX 9 16 1 0
BITMAP
0700
0580
0300
3A00
7C00
6E00
0000
3C00
FE00
EF00
CF00
FF00
E000
F200
7E00
3E00
ENDCHAR
STARTCHAR 1EC4
ENCODING 7876
SWIDTH 540 0
DWIDTH 9 0
BBX 8 18 1 0
BITMAP
7C
7C
00
38
7E
6C
00
FE
FE
E0
E0
FE
FE
E0
E0
E0
FF
FE
ENDCHAR
STARTCHAR 1EC5
ENCODING 7877
SWIDTH 540 0
DWIDTH 9 0
BBX 8 17 1 0
BITMAP
74
7C
00
38
7C
7E
6C
00
3C
FE
EF
CF
FF
E0
F2
7E
3E
ENDCHAR
STARTCHAR 1EC6
ENCODING 7878
SWIDTH 540 0
DWIDTH 9 0
BBX 8 20 1 -4
BITMAP
10
38
7E
6C
00
FE
FE
E0
E0
FE
FE
E0
E0
E0
FF
FE
00
18
38
18
ENDCHAR
STARTCHAR 1EC7
ENCODING 7879
SWIDTH 540 0
DWIDTH 9 0
BBX 8 18 1 -4
BITMAP
10
3C
7E
66
00
3C
FE
EF
CF
FF
E0
F2
7E
3E
00
18
38
18
ENDCHAR
STARTCHAR 1EC8
ENCODING 7880
SWIDTH 300 0
DWIDTH 5 0
BBX 3 16 1 0
BITMAP
E0
A0
60
C0
00
E0
E0
E0
E0
E0
E0
E0
E0
E0
E0
E0
ENDCHAR
STARTCHAR 1EC9
ENCODING 7881
SWIDTH 300 0
DWIDTH 5 0
BBX 3 14 1 0
BITMAP
E0
E0
E0
C0
00
E0
E0
E0
E0
E0
E0
E0
E0
E0
ENDCHAR
STARTCHAR 1ECA
ENCODING 7882
SWIDTH 300 0
DWIDTH 5 0
BBX 3 15 1 -4
BITMAP
E0
E0
E0
E0
E0
E0
E0
E0
E0
E0
E0
00
60
E0
60
ENDCHAR
STARTCHAR 1ECB
ENCODING 7883
SWIDTH 300 0
DWIDTH 5 0
BBX 3 17 1 -4
BITMAP
E0
E0
E0
00
E0
E0
E0
E0
E0
E0
E0
E0
E0
00
E0
E0
E0
ENDCHAR
STARTCHAR 1ECC
ENCODING 7884
SWIDTH 720 0
DWIDTH 12 0
BBX 10 15 1 -4
BITMAP
1E00
7F80
F3C0
E1C0
E1C0
E1C0
E1C0
E1C0
F3C0
7F80
1E00
0000
0C00
1C00
0C00
ENDCHAR
STARTCHAR 1ECD
ENCODING 7885
SWIDTH 600 0
DWIDTH 10 0
BBX 8 13 1 -4
BITMAP
3C
FE
E7
E7
C7
E7
E7
FE
3C
00
18
3C
18
ENDCHAR
STARTCHAR 1ECE
ENCODING 7886
SWIDTH 720 0
DWIDTH 12 0
BBX 10 16 1 0
BITMAP
1C00
1600
0C00
0C00
0000
1E00
7F80
F3C0
E1C0
E1C0
E1C0
E1C0
E1C0
F3C0
7F80
1E00
ENDCHAR
STARTCHAR 1ECF
ENCODING 7887
SWIDTH 600 0
DWIDTH 10 0
BBX 8 14 1 0
BITMAP
18
2C
1C
18
00
3C
FE
E7
E7
C7
E7
E7
FE
3C
ENDCHAR
STARTCHAR 1ED0
ENCODING 7888
SWIDTH 720 0
DWIDTH 12 0
BBX 10 18 1 0
BITMAP
00C0
01C0
0580
1E80
3F00
3300
0000
1E00
7F80
F3C0
E1C0
E1C0
E1C0
E1C0
E1C0
F3C0
7F80
1E00
ENDCHAR
STARTCHAR 1ED1
ENCODING 7889
SWIDTH 600 0
DWIDTH 10 0
BBX 9 16 1 0
BITMAP
0180
0380
1300
3C00
7E00
6600
0000
3C00
FE00
E700
E700
C700
E700
E700
FE00
3C00
ENDCHAR
STARTCHAR 1ED2
ENCODING 7890
SWIDTH 720 0
DWIDTH 12 0
BBX 10 18 1 0
BITMAP
0100
0380
05C0
1E00
3F00
3300
0000
1E00
7F80
F3C0
E1C0
E1C0
E1C0
E1C0
E1C0
F3C0
7F80
1E00
ENDCHAR
STARTCHAR 1ED3
ENCODING 7891
SWIDTH 600 0
DWIDTH 10 0
BBX 9 16 1 0
BITMAP
0600
0700
1B80
3C00
7E00
6600
0000
3C00
FE00
E700
E700
C700
E700
E700
FE00
3C00
ENDCHAR
STARTCHAR 1ED4
ENCODING 7892
SWIDTH 720 0
DWIDTH 12 0
BBX 10 18 1 0
BITMAP
01C0
0140
00C0
1F80
3F00
3F00
0000
1E00
7F80
F3C0
E1C0
E1C0
E1C0
E1C0
E1C0
F3C0
7F80
1E00
ENDCHAR
STARTCHAR 1ED5
ENCODING 7893
SWIDTH 600 0
DWIDTH 10 0
BBX 9 16 1 0
BITMAP
0380
0280
0380
3D00
7E00
6600
0000
3C00
FE00
E700
E700
C700
E700
E700
FE00
3C00
ENDCHAR
STARTCHAR 1ED6
ENCODING 7894
SWIDTH 720 0
DWIDTH 12 0
BBX 10 18 1 0
BITMAP
3F00
3F00
0000
1E00
3F00
3F00
0000
1E00
7F80
F3C0
E1C0
E1C0
E1C0
E1C0
E1C0
F3C0
7F80
1E00
ENDCHAR
STARTCHAR 1ED7
ENCODING 7895
SWIDTH 600 0
DWIDTH 10 0
BBX 8 17 1 0
BITMAP
74
7E
00
18
3C
7E
66
00
3C
FE
E7
E7
C7
E7
E7
FE
3C
ENDCHAR
STARTCHAR 1ED8
ENCODING 7896
SWIDTH 720 0
DWIDTH 12 0
BBX 10 20 1 -4
BITMAP
0400
1E00
3F00
3300
0000
1E00
7F80
F3C0
E1C0
E1C0
E1C0
E1C0
E1C0
F3C0
7F80
1E00
0000
0C00
1C00
0C00
ENDCHAR
STARTCHAR 1ED9
ENCODING 7897
SWIDTH 600 0
DWIDTH 10 0
BBX 8 18 1 -4
BITMAP
10
3C
7E
66
00
3C
FE
E7
E7
C7
E7
E7
FE
3C
00
18
3C
18
ENDCHAR
STARTCHAR 1EDA
ENCODING 7898
SWIDTH 780 0
DWIDTH 13 0
BBX 12 15 1 0
BITMAP
0600
1F00
1C00
0030
1E30
7FB0
F3F0
E1E0
E1C0
E1C0
E1C0
E1C0
F3C0
7F80
1E00
ENDCHAR
STARTCHAR 1EDB
ENCODING 7899
SWIDTH 660 0
DWIDTH 11 0
BBX 10 14 1 0
BITMAP
0800
1C00
3C00
38C0
00C0
3CC0
FFC0
E780
E700
C700
E700
E700
FE00
3C00
ENDCHAR
STARTCHAR 1EDC
ENCODING 7900
SWIDTH 780 0
DWIDTH 13 0
BBX 12 16 1 0
BITMAP
1000
1C00
1E00
0E00
0030
1E30
7FB0
F3F0
E1E0
E1C0
E1C0
E1C0
E1C0
F3C0
7F80
1E00
ENDCHAR
STARTCHAR 1EDD
ENCODING 7901
SWIDTH 660 0
DWIDTH 11 0
BBX 10 14 1 0
BITMAP
2000
7000
3C00
1CC0
00C0
3CC0
FFC0
E780
E700
C700
E700
E700
FE00
3C00
ENDCHAR
STARTCHAR 1EDE
ENCODING 7902
SWIDTH 780 0
DWIDTH 13 0
BBX 12 16 1 0
BITMAP
1C00
1600
0C00
0800
0030
1E30
7FB0
F3F0
E1E0
E1C0
E1C0
E1C0
E1C0
F3C0
7F80
1E00
ENDCHAR
STARTCHAR 1EDF
ENCODING 7903
SWIDTH 660 0
DWIDTH 11 0
BBX 10 14 1 0
BITMAP
1800
2C00
1C00
18C0
00C0
3CC0
FFC0
E780
E700
C700
E700
E700
FE00
3C00
ENDCHAR
STARTCHAR 1EE0
ENCODING 7904
SWIDTH 780 0
DWIDTH 13 0
BBX 12 15 1 0
BITMAP
3F00
3F00
0000
0030
1E30
7FB0
F3F0
E1E0
E1C0
E1C0
E1C0
E1C0
F3C0
7F80
1E00
ENDCHAR
STARTCHAR 1EE1
ENCODING 7905
SWIDTH 660 0
DWIDTH 11 0
BBX 10 13 1 0
BITMAP
7E00
7E00
00C0
00C0
3CC0
FFC0
E780
E700
C700
E700
E700
FF00
3C00
ENDCHAR
STARTCHAR 1EE2
ENCODING 7906
SWIDTH 780 0
DWIDTH 13 0
BBX 12 16 1 -4
BITMAP
0030
1E30
7FB0
F3F0
E1E0
E1C0
E1C0
E1C0
E1C0
F3C0
7F80
1E00
0000
0C00
1C00
0C00
ENDCHAR
STARTCHAR 1EE3
ENCODING 7907
SWIDTH 660 0
DWIDTH 11 0
BBX 10 15 1 -4
BITMAP
00C0
00C0
3CC0
FFC0
E780
E700
C700
E700
E700
FE00
3C00
0000
1800
3C00
1800
ENDCHAR
STARTCHAR 1EE4
ENCODING 7908
SWIDTH 660 0
DWIDTH 11 0
BBX 9 15 1 -4
BITMAP
E380
E380
E380
E380
E380
E380
E380
E380
F780
7F00
3E00
0000
0C00
1C00
0C00
ENDCHAR
STARTCHAR 1EE5
ENCODING 7909
SWIDTH 600 0
DWIDTH 10 0
BBX 8 13 1 -4
BITMAP
E7
E7
E7
E7
E7
E7
E7
FF
3E
00
18
1C
18
ENDCHAR
STARTCHAR 1EE6
ENCODING 7910
SWIDTH 660 0
DWIDTH 11 0
BBX 9 16 1 0
BITMAP
1C00
1400
0C00
0800
0000
E380
E380
E380
E380
E380
E380
E380
E380
F780
7F00
3E00
ENDCHAR
STARTCHAR 1EE7
ENCODING 7911
SWIDTH 600 0
DWIDTH 10 0
BBX 8 14 1 0
BITMAP
18
2C
18
18
00
E7
E7
E7
E7
E7
E7
E7
FF
3E
ENDCHAR
STARTCHAR 1EE8
ENCODING 7912
SWIDTH 780 0
DWIDTH 13 0
BBX 13 15 1 0
BITMAP
0E00
1E00
3800
0030
E3B8
E3B0
E3F0
E3E0
E380
E380
E380
E380
F780
7F00
3E00
ENDCHAR
STARTCHAR 1EE9
ENCODING 7913
SWIDTH 720 0
DWIDTH 12 0
BBX 11 14 1 0
BITMAP
0400
0E00
1E00
3860
0060
E7E0
E7E0
E7C0
E700
E700
E700
E700
FF00
3E00
ENDCHAR
STARTCHAR 1EEA
ENCODING 7914
SWIDTH 780 0
DWIDTH 13 0
BBX 13 16 1 0
BITMAP
2000
3800
3C00
1C00
0030
E3B8
E3B0
E3F0
E3E0
E380
E380
E380
E380
F780
7F00
3E00
ENDCHAR
STARTCHAR 1EEB
ENCODING 7915
SWIDTH 720 0
DWIDTH 12 0
BBX 11 14 1 0
BITMAP
2000
7000
3C00
1860
0060
E7E0
E7E0
E7C0
E700
E700
E700
E700
FF00
3E00
ENDCHAR
STARTCHAR 1EEC
ENCODING 7916
SWIDTH 780 0
DWIDTH 13 0
BBX 13 16 1 0
BITMAP
1C00
1400
0C00
0800
0030
E3B8
E3B0
E3F0
E3E0
E380
E380
E380
E380
F780
7F00
3E00
ENDCHAR
STARTCHAR 1EED
ENCODING 7917
SWIDTH 720 0
DWIDTH 12 0
BBX 11 14 1 0
BITMAP
3800
2C00
1800
1060
0060
E7E0
E7E0
E7C0
E700
E700
E700
E700
FF00
3E00
ENDCHAR
STARTCHAR 1EEE
ENCODING 7918
SWIDTH 780 0
DWIDTH 13 0
BBX 13 15 1 0
BITMAP
7F00
7E00
0000
0030
E3B8
E3B0
E3F0
E3E0
E380
E380
E380
E380
F780
7F00
3E00
ENDCHAR
STARTCHAR 1EEF
ENCODING 7919
SWIDTH 720 0
DWIDTH 12 0
BBX 11 13 1 0
BITMAP
7E00
7E00
0060
0060
E7E0
E7E0
E7C0
E700
E700
E700
E700
FF00
3E00
ENDCHAR
STARTCHAR 1EF0
ENCODING 7920
SWIDTH 780 0
DWIDTH 13 0
BBX 13 16 1 -4
BITMAP
0030
E3B8
E3B0
E3F0
E3E0
E380
E380
E380
E380
F780
7F00
3E00
0000
0C00
1C00
0C00
ENDCHAR
STARTCHAR 1EF1
ENCODING 7921
SWIDTH 720 0
DWIDTH 12 0
BBX 11 15 1 -4
BITMAP
0060
0060
E7E0
E7E0
E7C0
E700
E700
E700
E700
FF00
3E00
0000
1800
3C00
1800
ENDCHAR
STARTCHAR 1EF2
ENCODING 7922
SWIDTH 600 0
DWIDTH 10 0
BBX 9 15 0 0
BITMAP
3800
3E00
0E00
0000
E180
F380
7380
7F80
3F00
1F00
1E00
0E00
0E00
0E00
0E00
ENDCHAR
STARTCHAR 1EF3
ENCODING 7923
SWIDTH 540 0
DWIDTH 9 0
BBX 9 16 0 -3
BITMAP
3000
3C00
1C00
0000
E380
6380
7380
7380
7700
3F00
3F00
1E00
1E00
3C00
7800
3800
ENDCHAR
STARTCHAR 1EF4
ENCODING 7924
SWIDTH 600 0
DWIDTH 10 0
BBX 9 15 0 -4
BITMAP
E180
F380
7380
7F80
3F00
1F00
1E00
0E00
0E00
0E00
0E00
0000
0C00
0E00
0C00
ENDCHAR
STARTCHAR 1EF5
ENCODING 7925
SWIDTH 600 0
DWIDTH 10 0
BBX 10 13 0 -4
BITMAP
6380
E380
7380
7380
7700
3F00
3F00
1E00
0E00
1C00
79C0
39C0
01C0
ENDCHAR
STARTCHAR 1EF6
ENCODING 7926
SWIDTH 600 0
DWIDTH 10 0
BBX 9 16 0 0
BITMAP
1C00
1600
0C00
0800
0000
E180
F380
7380
7F80
3F00
1F00
1E00
0E00
0E00
0E00
0E00
ENDCHAR
STARTCHAR 1EF7
ENCODING 7927
SWIDTH 540 0
DWIDTH 9 0
BBX 9 17 0 -3
BITMAP
1C00
1600
0C00
0800
0000
E380
6380
7380
7380
7700
3F00
3F00
1E00
1E00
3C00
7800
3800
ENDCHAR
STARTCHAR 1EF8
ENCODING 7928
SWIDTH 600 0
DWIDTH 10 0
BBX 9 15 0 0
BITMAP
3F00
3F00
0000
0000
E180
F380
7380
7F80
3F00
1F00
1E00
0E00
0E00
0E00
0E00
ENDCHAR
STARTCHAR 1EF9
ENCODING 7929
SWIDTH 540 0
DWIDTH 9 0
BBX 9 16 0 -3
BITMAP
3E00
7F00
0000
0000
E380
6380
7380
7380
7700
3F00
3F00
1E00
1E00
3C00
7800
3800
ENDCHAR
STARTCHAR 2007
ENCODING 8199
SWIDTH 540 0
DWIDTH 9 0
BBX 0 0 0 0
BITMAP
ENDCHAR
STARTCHAR 200C
ENCODING 8204
SWIDTH 240 0
DWIDTH 4 0
BBX 4 11 0 0
BITMAP
A0
60
F0
A0
60
60
60
60
60
60
60
ENDCHAR
STARTCHAR 200D
ENCODING 8205
SWIDTH 180 0
DWIDTH 3 0
BBX 1 11 1 0
BITMAP
80
80
80
80
80
80
80
80
80
80
80
ENDCHAR
STARTCHAR 2010
ENCODING 8208
SWIDTH 360 0
DWIDTH 6 0
BBX 5 2 1 3
BITMAP
F8
F0
ENDCHAR
STARTCHAR 2012
ENCODING 8210
SWIDTH 480 0
DWIDTH 8 0
BBX 7 2 1 4
BITMAP
FE
FE
ENDCHAR
STARTCHAR 2013
ENCODING 8211
SWIDTH 540 0
DWIDTH 9 0
BBX 8 2 1 3
BITMAP
FF
FF
ENDCHAR
STARTCHAR 2014
ENCODING 8212
SWIDTH 780 0
DWIDTH 13 0
BBX 11 2 1 3
BITMAP
FFE0
FFE0
ENDCHAR
STARTCHAR 2015
ENCODING 8213
SWIDTH 720 0
DWIDTH 12 0
BBX 11 2 1 3
BITMAP
FFE0
FFE0
ENDCHAR
STARTCHAR 2018
ENCODING 8216
SWIDTH 240 0
DWIDTH 4 0
BBX 3 5 0 7
BITMAP
60
60
60
E0
60
ENDCHAR
STARTCHAR 2019
ENCODING 8217
SWIDTH 240 0
DWIDTH 4 0
BBX 3 5 0 7
BITMAP
60
60
60
E0
E0
ENDCHAR
STARTCHAR 201A
ENCODING 8218
SWIDTH 240 0
DWIDTH 4 0
BBX 2 5 1 -2
BITMAP
C0
C0
C0
C0
C0
ENDCHAR
STARTCHAR 201C
ENCODING 8220
SWIDTH 420 0
DWIDTH 7 0
BBX 7 5 0 7
BITMAP
66
6E
6E
EE
6C
ENDCHAR
STARTCHAR 201D
ENCODING 8221
SWIDTH 420 0
DWIDTH 7 0
BBX 7 5 0 7
BITMAP
6E
6E
6E
EC
CC
ENDCHAR
STARTCHAR 201E
ENCODING 8222
SWIDTH 420 0
DWIDTH 7 0
BBX 6 5 1 -2
BITMAP
D8
DC
D8
D8
D8
ENDCHAR
STARTCHAR 2020
ENCODING 8224
SWIDTH 540 0
DWIDTH 9 0
BBX 7 12 1 -1
BITMAP
38
38
FE
FE
38
38
38
38
38
38
10
10
ENDCHAR
STARTCHAR 2021
ENCODING 8225
SWIDTH 540 0
DWIDTH 9 0
BBX 7 12 1 -1
BITMAP
38
38
FE
FE
38
38
38
FE
FE
38
38
38
ENDCHAR
STARTCHAR 2022
ENCODING 8226
SWIDTH 300 0
DWIDTH 5 0
BBX 4 4 1 3
BITMAP
E0
F0
F0
E0
ENDCHAR
STARTCHAR 2026
ENCODING 8230
SWIDTH 720 0
DWIDTH 12 0
BBX 12 3 0 0
BITMAP
6660
FFF0
6660
ENDCHAR
STARTCHAR 2030
ENCODING 8240
SWIDTH 1200 0
DWIDTH 20 0
BBX 18 11 1 0
BITMAP
708000
F9C000
D98000
DB0000
FF0000
76E380
0DF7C0
1DB6C0
19B6C0
31F7C0
30E380
ENDCHAR
STARTCHAR 2032
ENCODING 8242
SWIDTH 240 0
DWIDTH 4 0
BBX 3 5 0 7
BITMAP
60
60
60
E0
E0
ENDCHAR
STARTCHAR 2033
ENCODING 8243
SWIDTH 420 0
DWIDTH 7 0
BBX 7 5 0 7
BITMAP
6E
6E
6E
EC
CC
ENDCHAR
STARTCHAR 2039
ENCODING 8249
SWIDTH 360 0
DWIDTH 6 0
BBX 4 8 1 0
BITMAP
10
30
70
E0
C0
E0
70
30
ENDCHAR
STARTCHAR 203A
ENCODING 8250
SWIDTH 360 0
DWIDTH 6 0
BBX 4 8 1 0
BITMAP
C0
E0
70
30
70
E0
C0
80
ENDCHAR
STARTCHAR 2044
ENCODING 8260
SWIDTH 480 0
DWIDTH 8 0
BBX 8 10 0 0
BITMAP
03
06
06
0C
18
38
30
60
C0
C0
ENDCHAR
STARTCHAR 2070
ENCODING 8304
SWIDTH 360 0
DWIDTH 6 0
BBX 5 5 0 5
BITMAP
70
58
C8
58
70
ENDCHAR
STARTCHAR 2074
ENCODING 8308
SWIDTH 300 0
DWIDTH 5 0
BBX 5 5 0 5
BITMAP
30
70
50
F8
10
ENDCHAR
STARTCHAR 2075
ENCODING 8309
SWIDTH 300 0
DWIDTH 5 0
BBX 5 5 0 5
BITMAP
70
70
18
D0
70
ENDCHAR
STARTCHAR 2076
ENCODING 8310
SWIDTH 300 0
DWIDTH 5 0
BBX 5 5 0 5
BITMAP
70
70
D8
D8
70
ENDCHAR
STARTCHAR 2077
ENCODING 8311
SWIDTH 240 0
DWIDTH 4 0
BBX 4 5 0 5
BITMAP
F0
30
30
60
60
ENDCHAR
STARTCHAR 2078
ENCODING 8312
SWIDTH 300 0
DWIDTH 5 0
BBX 5 5 0 5
BITMAP
70
58
70
D8
70
ENDCHAR
STARTCHAR 2079
ENCODING 8313
SWIDTH 300 0
DWIDTH 5 0
BBX 5 5 0 5
BITMAP
70
D8
78
98
70
ENDCHAR
STARTCHAR 207D
ENCODING 8317
SWIDTH 180 0
DWIDTH 3 0
BBX 3 7 0 4
BITMAP
60
40
C0
C0
C0
40
60
ENDCHAR
STARTCHAR 207E
ENCODING 8318
SWIDTH 180 0
DWIDTH 3 0
BBX 3 7 0 4
BITMAP
C0
40
60
60
60
40
C0
ENDCHAR
STARTCHAR 207F
ENCODING 8319
SWIDTH 420 0
DWIDTH 7 0
BBX 5 5 1 5
BITMAP
F0
D8
D8
D8
D8
ENDCHAR
STARTCHAR 2080
ENCODING 8320
SWIDTH 360 0
DWIDTH 6 0
BBX 5 6 0 0
BITMAP
70
58
C8
C8
58
70
ENDCHAR
STARTCHAR 2081
ENCODING 8321
SWIDTH 240 0
DWIDTH 4 0
BBX 3 6 0 0
BITMAP
60
E0
60
60
60
60
ENDCHAR
STARTCHAR 2082
ENCODING 8322
SWIDTH 300 0
DWIDTH 5 0
BBX 4 6 0 0
BITMAP
70
70
30
70
E0
F0
ENDCHAR
STARTCHAR 2083
ENCODING 8323
SWIDTH 300 0
DWIDTH 5 0
BBX 4 6 0 0
BITMAP
70
B0
10
70
90
F0
ENDCHAR
STARTCHAR 2084
ENCODING 8324
SWIDTH 300 0
DWIDTH 5 0
BBX 5 6 0 0
BITMAP
30
30
70
D0
F8
10
ENDCHAR
STARTCHAR 2085
ENCODING 8325
SWIDTH 300 0
DWIDTH 5 0
BBX 5 6 0 0
BITMAP
70
40
70
18
D0
70
ENDCHAR
STARTCHAR 2086
ENCODING 8326
SWIDTH 300 0
DWIDTH 5 0
BBX 5 6 0 0
BITMAP
70
70
F0
D8
58
70
ENDCHAR
STARTCHAR 2087
ENCODING 8327
SWIDTH 240 0
DWIDTH 4 0
BBX 4 6 0 0
BITMAP
F0
30
30
60
60
40
ENDCHAR
STARTCHAR 2088
ENCODING 8328
SWIDTH 300 0
DWIDTH 5 0
BBX 5 6 0 0
BITMAP
70
58
70
78
D8
70
ENDCHAR
STARTCHAR 2089
ENCODING 8329
SWIDTH 300 0
DWIDTH 5 0
BBX 5 6 0 0
BITMAP
70
D8
D8
78
98
70
ENDCHAR
STARTCHAR 208D
ENCODING 8333
SWIDTH 180 0
DWIDTH 3 0
BBX 3 7 0 -1
BITMAP
60
40
C0
C0
C0
40
60
ENDCHAR
STARTCHAR 208E
ENCODING 8334
SWIDTH 180 0
DWIDTH 3 0
BBX 3 7 0 -1
BITMAP
C0
40
60
60
60
40
C0
ENDCHAR
STARTCHAR 20A1
ENCODING 8353
SWIDTH 600 0
DWIDTH 10 0
BBX 9 14 1 -1
BITMAP
0A00
1A00
7B00
7B80
FB00
FE00
DE00
DE00
FE00
FE00
FF80
7F80
1700
1600
ENDCHAR
STARTCHAR 20A4
ENCODING 8356
SWIDTH 540 0
DWIDTH 9 0
BBX 8 11 1 0
BITMAP
1E
3E
7A
FC
FE
00
FE
FC
70
FF
FE
ENDCHAR
STARTCHAR 20A6
ENCODING 8358
SWIDTH 780 0
DWIDTH 13 0
BBX 12 11 0 0
BITMAP
38E0
3CE0
3CE0
FFF0
FFF0
0000
FFF0
FFF0
3BE0
39E0
39E0
ENDCHAR
STARTCHAR 20A7
ENCODING 8359
SWIDTH 1260 0
DWIDTH 21 0
BBX 19 11 1 0
BITMAP
7C0000
FE0000
EEE000
EFE000
EEFBE0
FEFFE0
FCE700
E0E3E0
E0E060
E0FFE0
E07BC0
ENDCHAR
STARTCHAR 20AB
ENCODING 8363
SWIDTH 600 0
DWIDTH 10 0
BBX 9 16 1 -3
BITMAP
0700
0700
0F80
0F80
3F00
FF00
F700
E700
C700
E700
F700
FF00
3E00
0000
7E00
7E00
ENDCHAR
STARTCHAR 20AC
ENCODING 8364
SWIDTH 600 0
DWIDTH 10 0
BBX 10 11 0 0
BITMAP
0F80
3FC0
3C80
FF00
FF00
0000
FF00
FF00
3880
3FC0
0F80
ENDCHAR
STARTCHAR 20B1
ENCODING 8369
SWIDTH 660 0
DWIDTH 11 0
BBX 11 11 0 0
BITMAP
3F00
3F80
FFE0
0000
0000
FFE0
3F80
3F80
3800
3800
3800
ENDCHAR
STARTCHAR 20B2
ENCODING 8370
SWIDTH 660 0
DWIDTH 11 0
BBX 9 14 1 -2
BITMAP
0C00
0C00
3F80
7F80
F080
E000
EF80
E780
E180
F180
7F80
3F80
0C00
0C00
ENDCHAR
STARTCHAR 20B5
ENCODING 8373
SWIDTH 600 0
DWIDTH 10 0
BBX 8 14 1 -2
BITMAP
1C
1C
3F
7F
F1
E0
E0
E0
E0
F1
7F
7F
1C
1C
ENDCHAR
STARTCHAR 20B9
ENCODING 8377
SWIDTH 600 0
DWIDTH 10 0
BBX 8 11 1 0
BITMAP
FF
FF
7F
FF
FE
7C
F8
70
38
1C
0C
ENDCHAR
STARTCHAR 20BA
ENCODING 8378
SWIDTH 540 0
DWIDTH 9 0
BBX 9 11 0 0
BITMAP
3800
3E00
7E00
E000
1E00
F800
B980
3B80
3F80
3F00
1E00
ENDCHAR
STARTCHAR 20BD
ENCODING 8381
SWIDTH 600 0
DWIDTH 10 0
BBX 10 11 0 0
BITMAP
3F00
3FC0
39C0
39C0
FFC0
FF80
0000
FF80
FF80
3800
3800
ENDCHAR
STARTCHAR 2113
ENCODING 8467
SWIDTH 480 0
DWIDTH 8 0
BBX 7 11 1 0
BITMAP
7C
FC
EE
EE
EE
FC
FC
F8
E0
FC
78
ENDCHAR
STARTCHAR 2117
ENCODING 8471
SWIDTH 720 0
DWIDTH 12 0
BBX 11 11 1 0
BITMAP
0400
3F00
6180
DEC0
DAC0
9A60
9E40
D8C0
D8C0
7F80
1E00
ENDCHAR
STARTCHAR 2120
ENCODING 8480
SWIDTH 780 0
DWIDTH 13 0
BBX 11 6 1 5
BITMAP
F660
97E0
E7E0
75A0
B5A0
F420
ENDCHAR
STARTCHAR 2122
ENCODING 8482
SWIDTH 780 0
DWIDTH 13 0
BBX 12 6 0 4
BITMAP
FB30
33F0
32F0
32F0
32D0
3210
ENDCHAR
STARTCHAR 2126
ENCODING 8486
SWIDTH 780 0
DWIDTH 13 0
BBX 11 11 1 0
BITMAP
3F00
7FC0
F1C0
E1E0
E0E0
E0E0
E0E0
E1C0
71C0
FBE0
FBE0
ENDCHAR
STARTCHAR 212E
ENCODING 8494
SWIDTH 780 0
DWIDTH 13 0
BBX 12 11 1 0
BITMAP
1F00
2080
4040
C060
C060
FFF0
C000
C000
4000
20C0
1F00
ENDCHAR
STARTCHAR 2153
ENCODING 8531
SWIDTH 660 0
DWIDTH 11 0
BBX 11 11 0 0
BITMAP
6180
E180
6300
6600
6600
6DC0
1860
19C0
3060
6260
61C0
ENDCHAR
STARTCHAR 2154
ENCODING 8532
SWIDTH 720 0
DWIDTH 12 0
BBX 12 11 0 0
BITMAP
70C0
9180
3180
6300
F300
07E0
0C20
0CE0
1820
3130
30E0
ENDCHAR
STARTCHAR 215B
ENCODING 8539
SWIDTH 660 0
DWIDTH 11 0
BBX 11 11 0 0
BITMAP
6180
E180
6300
6600
6600
6DC0
1B60
19C0
33C0
6360
61C0
ENDCHAR
STARTCHAR 215C
ENCODING 8540
SWIDTH 720 0
DWIDTH 12 0
BBX 12 11 0 0
BITMAP
F0C0
1180
7180
1300
F700
06E0
0DA0
1DE0
19E0
31B0
30E0
ENDCHAR
STARTCHAR 215D
ENCODING 8541
SWIDTH 720 0
DWIDTH 12 0
BBX 12 11 0 0
BITMAP
70C0
4180
7180
9B00
F700
06E0
0DA0
0DE0
19E0
31B0
30E0
ENDCHAR
STARTCHAR 215E
ENCODING 8542
SWIDTH 660 0
DWIDTH 11 0
BBX 10 11 0 0
BITMAP
F180
3300
3300
6600
6C00
4DC0
1B40
33C0
33C0
6340
41C0
ENDCHAR
STARTCHAR 2190
ENCODING 8592
SWIDTH 720 0
DWIDTH 12 0
BBX 12 7 0 2
BITMAP
0800
3C00
7800
FFF0
FFF0
7800
1C00
ENDCHAR
STARTCHAR 2191
ENCODING 8593
SWIDTH 480 0
DWIDTH 8 0
BBX 8 12 0 0
BITMAP
08
3C
3C
7E
FF
7F
18
18
18
18
18
18
ENDCHAR
STARTCHAR 2192
ENCODING 8594
SWIDTH 720 0
DWIDTH 12 0
BBX 12 8 0 1
BITMAP
0180
01C0
01E0
FFF0
FFF0
01E0
01C0
0100
ENDCHAR
STARTCHAR 2193
ENCODING 8595
SWIDTH 480 0
DWIDTH 8 0
BBX 8 12 0 0
BITMAP
08
18
18
18
18
18
5A
FF
7F
3E
3C
18
ENDCHAR
STARTCHAR 2202
ENCODING 8706
SWIDTH 600 0
DWIDTH 10 0
BBX 8 11 1 0
BITMAP
3C
7E
4E
07
7F
FF
E7
C7
EE
FE
7C
ENDCHAR
STARTCHAR 2206
ENCODING 8710
SWIDTH 660 0
DWIDTH 11 0
BBX 11 11 0 0
BITMAP
0400
0F00
1F00
1F00
3B80
3B80
71C0
71C0
70C0
FFE0
7FC0
ENDCHAR
STARTCHAR 220F
ENCODING 8719
SWIDTH 600 0
DWIDTH 10 0
BBX 8 10 1 0
BITMAP
FF
FF
E7
E7
E7
E7
E7
E7
E7
E7
ENDCHAR
STARTCHAR 2211
ENCODING 8721
SWIDTH 600 0
DWIDTH 10 0
BBX 8 10 1 0
BITMAP
FF
FF
F0
7C
1C
3C
78
F0
FF
FF
ENDCHAR
STARTCHAR 2212
ENCODING 8722
SWIDTH 540 0
DWIDTH 9 0
BBX 7 2 1 4
BITMAP
FE
FE
ENDCHAR
STARTCHAR 2215
ENCODING 8725
SWIDTH 480 0
DWIDTH 8 0
BBX 8 10 0 0
BITMAP
03
06
06
0C
18
38
30
60
C0
C0
ENDCHAR
STARTCHAR 221A
ENCODING 8730
SWIDTH 600 0
DWIDTH 10 0
BBX 10 15 0 -3
BITMAP
0080
01C0
01C0
0180
0180
0380
0380
2300
F300
F700
3600
3E00
1E00
1E00
0C00
ENDCHAR
STARTCHAR 221E
ENCODING 8734
SWIDTH 840 0
DWIDTH 14 0
BBX 12 6 1 2
BITMAP
79E0
FFF0
CF70
CF70
FFF0
79E0
ENDCHAR
STARTCHAR 222B
ENCODING 8747
SWIDTH 480 0
DWIDTH 8 0
BBX 7 16 0 -4
BITMAP
1E
1E
38
38
38
38
38
38
38
38
38
38
38
38
F8
70
ENDCHAR
STARTCHAR 2248
ENCODING 8776
SWIDTH 540 0
DWIDTH 9 0
BBX 8 6 0 2
BITMAP
7F
FF
46
7B
7F
6F
ENDCHAR
STARTCHAR 2260
ENCODING 8800
SWIDTH 480 0
DWIDTH 8 0
BBX 8 10 0 0
BITMAP
08
0C
7F
FF
18
18
FF
7F
30
30
ENDCHAR
STARTCHAR 2264
ENCODING 8804
SWIDTH 480 0
DWIDTH 8 0
BBX 8 11 0 0
BITMAP
06
1E
7E
F8
F0
7C
1E
06
00
FF
7F
ENDCHAR
STARTCHAR 2265
ENCODING 8805
SWIDTH 480 0
DWIDTH 8 0
BBX 8 11 0 0
BITMAP
40
70
7C
1E
0F
3E
7C
70
00
FF
7F
ENDCHAR
STARTCHAR 25A0
ENCODING 9632
SWIDTH 660 0
DWIDTH 11 0
BBX 9 9 1 0
BITMAP
FF80
FF80
FF80
FF80
FF80
FF80
FF80
FF80
FF80
ENDCHAR
STARTCHAR 25B2
ENCODING 9650
SWIDTH 600 0
DWIDTH 10 0
BBX 9 9 1 0
BITMAP
1800
1C00
3C00
3E00
7E00
7F00
FF00
FF80
FF80
ENDCHAR
STARTCHAR 25B3
ENCODING 9651
SWIDTH 600 0
DWIDTH 10 0
BBX 9 9 1 0
BITMAP
1800
1C00
3C00
3600
7600
6700
E300
FF80
FF80
ENDCHAR
STARTCHAR 25B6
ENCODING 9654
SWIDTH 660 0
DWIDTH 11 0
BBX 9 9 1 0
BITMAP
C000
F000
FC00
FF00
FF80
FF80
FE00
F800
E000
ENDCHAR
STARTCHAR 25B7
ENCODING 9655
SWIDTH 660 0
DWIDTH 11 0
BBX 9 9 1 0
BITMAP
C000
F000
FC00
CF00
C380
CF80
FE00
F800
E000
ENDCHAR
STARTCHAR 25BC
ENCODING 9660
SWIDTH 600 0
DWIDTH 10 0
BBX 9 9 1 0
BITMAP
FF80
FF80
FF00
7F00
7E00
3E00
3C00
1C00
1800
ENDCHAR
STARTCHAR 25BD
ENCODING 9661
SWIDTH 600 0
DWIDTH 10 0
BBX 9 9 1 0
BITMAP
FF80
FF80
E300
6700
7600
3E00
3C00
1C00
1800
ENDCHAR
STARTCHAR 25C0
ENCODING 9664
SWIDTH 660 0
DWIDTH 11 0
BBX 9 9 1 0
BITMAP
0380
0F80
3F80
FF80
FF80
FF80
3F80
0F80
0380
ENDCHAR
STARTCHAR 25C1
ENCODING 9665
SWIDTH 660 0
DWIDTH 11 0
BBX 9 9 1 0
BITMAP
0380
0F80
3F80
FB80
E380
FB80
3F80
0F80
0380
ENDCHAR
STARTCHAR 25C6
ENCODING 9670
SWIDTH 660 0
DWIDTH 11 0
BBX 9 10 1 0
BITMAP
0800
1C00
3E00
7F00
FF80
FF80
FF00
7E00
3C00
1800
ENDCHAR
STARTCHAR 25CA
ENCODING 9674
SWIDTH 600 0
DWIDTH 10 0
BBX 9 12 1 -1
BITMAP
0800
3C00
7E00
7E00
E700
E700
C380
E700
F700
7E00
3C00
3C00
ENDCHAR
STARTCHAR 25CC
ENCODING 9676
SWIDTH 600 0
DWIDTH 10 0
BBX 9 10 1 0
BITMAP
1800
7B00
6300
0000
C180
C180
0000
6300
7B00
1800
ENDCHAR
STARTCHAR FB01
ENCODING 64257
SWIDTH 720 0
DWIDTH 12 0
BBX 10 13 1 0
BITMAP
01C0
7DC0
FDC0
E000
E1C0
FDC0
FDC0
E1C0
E1C0
E1C0
E1C0
E1C0
E1C0
ENDCHAR
STARTCHAR FB02
ENCODING 64258
SWIDTH 720 0
DWIDTH 12 0
BBX 10 12 1 0
BITMAP
7DC0
FDC0
E5C0
E1C0
FDC0
FDC0
E1C0
E1C0
E1C0
E1C0
E1C0
E1C0
ENDCHAR
ENDFONT
